<?xml version="1.0" encoding="utf-8"?>
<!-- Generator: Adobe Illustrator 22.0.1, SVG Export Plug-In . SVG Version: 6.00 Build 0)  -->
<svg version="1.1" id="Capa_1" xmlns="http://www.w3.org/2000/svg" xmlns:xlink="http://www.w3.org/1999/xlink" x="0px" y="0px"
	 viewBox="0 0 512 512" style="enable-background:new 0 0 512 512;" xml:space="preserve">
<style type="text/css">
	.st0{fill:#404040;}
	.st1{fill:none;}
	.st2{fill:none;stroke:#404040;stroke-width:24;stroke-miterlimit:10;}
</style>
<path class="st0" d="M393.1,5H337v24.4h58.8c36.2,0,65.7,29.4,65.7,65.7v321.8h0.1c0,36.2-29.4,65.7-65.7,65.7H245h-4.7H111.4
	c-36.3,0-65.7-29.6-65.7-65.7V95.1c0-36.3,29.6-65.7,65.7-65.7h58.9V5h-56.1C62.8,5,21,46.9,21,98.2v315.6
	c0,51.5,41.9,93.2,93.2,93.2h126.4h4.6h147.9c51.4,0,93.2-41.8,93.2-93.2V98.2C486.3,46.9,444.6,5,393.1,5z"/>
<path class="st1" d="M-528.9,364.3H-399v-74.2h-45.1C-487.6,290.1-523.3,322.7-528.9,364.3z"/>
<g>
	<circle class="st2" cx="253.6" cy="199.6" r="52"/>
	<path class="st2" d="M280.6,288.6h-54c-42.8,0-78.1,33.7-80.8,75.8h215.6C358.8,322.3,323.5,288.6,280.6,288.6z"/>
</g>
</svg>
