<?xml version="1.0" encoding="utf-8"?>
<!-- Generator: Adobe Illustrator 22.0.1, SVG Export Plug-In . SVG Version: 6.00 Build 0)  -->
<svg version="1.1" id="Capa_1" xmlns="http://www.w3.org/2000/svg" xmlns:xlink="http://www.w3.org/1999/xlink" x="0px" y="0px"
	 viewBox="0 0 490.7 490.7" style="enable-background:new 0 0 490.7 490.7;" xml:space="preserve">
<path d="M488.5,187.5c-5.2-15.6-19.1-26.3-35.1-27.2l-119.7-8.6c-2.5-0.2-4.7-1.7-5.6-4.1l-45.6-111c-6.3-15.3-20.5-24.8-37.1-24.8
	s-30.6,9.5-37.1,24.9l-45.7,111.1c-1,2.3-3.1,3.9-5.6,4.1l-119.5,8.6c-16.2,0.8-30,11.4-35.3,27.1c-5.4,15.8-0.8,32.3,11.9,43.3
	l92.4,76.3c1.9,1.6,2.8,4.2,2.2,6.6l-28,115.3c-3.3,12-1,24.4,6.3,34.1c7.5,9.8,19.2,15.7,31.5,15.7c7.6,0,14.9-2.3,21.1-6.4
	l101-62.9c2.1-1.3,4.8-1.3,6.9,0l102.1,62.7c6.4,4.3,13.8,6.6,21.3,6.6c11.4,0,22.9-5.5,30.3-14.8c7.7-9.6,10.5-22.1,7.7-34.6
	l-28.3-115.7c-0.6-2.5,0.3-5.1,2.2-6.7l93.8-76.5C489.4,219.9,493.8,203.3,488.5,187.5z M450.1,213.5L361.3,286
	c-8.8,7.1-12.7,18.9-10,29.9l26.9,109.5c1.4,6.4-1.1,10.9-2.8,13c-2.6,3.3-6.6,5.4-10.7,5.4c-2.5,0-4.9-0.8-7.5-2.5l-97.3-59.9
	c-4.6-2.8-10-4.3-15.5-4.3c-5.5,0-10.9,1.5-15.6,4.4l-96.3,59.9c-6.1,4.1-14.4,2.3-18.8-3.4c-1.8-2.4-3.7-6.4-2-12.5l26.9-109.8
	c2.6-10.9-1.2-22.5-9.9-29.7l-87.5-72.3c-6.9-5.9-5-13.7-4.2-15.8c0.8-2.2,3.9-9.5,13-10l113.6-8.1c11.2-0.8,20.8-7.7,25.1-18.2
	l43.4-105.4c3.5-8.6,11.4-9.2,13.7-9.2c2.3,0,10.2,0.7,13.7,9.2l43.4,105.4c4.2,10.5,14,17.4,25.1,18.2l113.7,8.2
	c9,0.5,12.1,7.7,12.8,10C454.9,200,456.8,207.7,450.1,213.5z"/>
</svg>
