<?xml version="1.0" encoding="utf-8"?>
<!-- Generator: Adobe Illustrator 22.0.1, SVG Export Plug-In . SVG Version: 6.00 Build 0)  -->
<svg version="1.1" id="Capa_1" xmlns="http://www.w3.org/2000/svg" xmlns:xlink="http://www.w3.org/1999/xlink" x="0px" y="0px"
	 viewBox="0 0 490.7 490.7" style="enable-background:new 0 0 490.7 490.7;" xml:space="preserve">
<path d="M474.6,190.8c-4.9-14.7-18-24.8-33.1-25.6L328.6,157c-2.4-0.2-4.4-1.6-5.3-3.9l-43-104.7C274.4,34,261,25,245.3,25
	s-28.9,9-35,23.5l-43.1,104.8c-0.9,2.2-2.9,3.7-5.3,3.9l-112.7,8.1c-15.3,0.8-28.3,10.8-33.3,25.6c-5.1,14.9-0.8,30.5,11.2,40.8
	l87.2,72c1.8,1.5,2.6,4,2.1,6.2L90,418.6c-3.1,11.3-0.9,23,5.9,32.2c7.1,9.2,18.1,14.8,29.7,14.8c7.2,0,14.1-2.2,19.9-6l95.3-59.3
	c2-1.2,4.5-1.2,6.5,0l96.3,59.1c6,4.1,13,6.2,20.1,6.2c10.8,0,21.6-5.2,28.6-14c7.3-9.1,9.9-20.8,7.3-32.6L372.9,310
	c-0.6-2.4,0.3-4.8,2.1-6.3l88.5-72.2C475.4,221.2,479.6,205.6,474.6,190.8z"/>
</svg>
