<?xml version="1.0" encoding="utf-8"?>
<!-- Generator: Adobe Illustrator 22.0.1, SVG Export Plug-In . SVG Version: 6.00 Build 0)  -->
<svg version="1.1" id="Capa_1" xmlns="http://www.w3.org/2000/svg" xmlns:xlink="http://www.w3.org/1999/xlink" x="0px" y="0px"
	 viewBox="0 0 490.7 490.7" style="enable-background:new 0 0 490.7 490.7;" xml:space="preserve">
<path d="M487.8,187.8c-5.2-15.5-19.1-26.2-35-27.1l-119.5-8.5c-2.5-0.2-4.7-1.7-5.6-4.1L282.1,37.7C275.9,22.5,261.7,13,245.1,13
	c-16.6,0-30.6,9.5-37.1,24.8l-45.6,110.5c-1,2.3-3.1,3.9-5.6,4.1l-119.3,8.5c-16.2,0.8-30,11.4-35.3,27c-5.4,15.7-0.8,32.2,11.9,43
	l92.3,75.9c1.9,1.6,2.8,4.2,2.2,6.5L80.7,428.1c-3.3,11.9-1,24.3,6.2,34c7.5,9.7,19.2,15.6,31.4,15.6c7.6,0,14.9-2.3,21.1-6.3
	l100.9-62.5c2.1-1.3,4.8-1.3,6.9,0l101.9,62.3c6.4,4.3,13.8,6.5,21.3,6.5c11.4,0,22.9-5.5,30.3-14.8c7.7-9.6,10.5-21.9,7.7-34.4
	l-28.3-115c-0.6-2.5,0.3-5.1,2.2-6.6l93.7-76.1C488.7,220,493.1,203.5,487.8,187.8z"/>
</svg>
