<?xml version="1.0" encoding="utf-8"?>
<!-- Generator: Adobe Illustrator 22.0.1, SVG Export Plug-In . SVG Version: 6.00 Build 0)  -->
<svg version="1.1" id="Capa_1" xmlns="http://www.w3.org/2000/svg" xmlns:xlink="http://www.w3.org/1999/xlink" x="0px" y="0px"
	 viewBox="0 0 490.7 490.7" style="enable-background:new 0 0 490.7 490.7;" xml:space="preserve">
<style type="text/css">
	.st0{stroke:#000000;stroke-miterlimit:10;}
</style>
<path d="M487.8,187.8c-5.2-15.5-19.1-26.2-35-27.1l-119.5-8.5c-2.5-0.2-4.7-1.7-5.6-4.1L282.1,37.7C275.9,22.5,261.7,13,245.1,13
	c-16.6,0-30.6,9.5-37.1,24.8l-45.6,110.5c-1,2.3-3.1,3.9-5.6,4.1l-119.3,8.5c-16.2,0.8-30,11.4-35.3,27c-5.4,15.7-0.8,32.2,11.9,43
	l92.3,75.9c1.9,1.6,2.8,4.2,2.2,6.5L80.7,428.1c-3.3,11.9-1,24.3,6.2,34c7.5,9.7,19.2,15.6,31.4,15.6c7.6,0,14.9-2.3,21.1-6.3
	l100.9-62.5c2.1-1.3,4.8-1.3,6.9,0l101.9,62.3c6.4,4.3,13.8,6.5,21.3,6.5c11.4,0,22.9-5.5,30.3-14.8c7.7-9.6,10.5-21.9,7.7-34.4
	l-28.3-115c-0.6-2.5,0.3-5.1,2.2-6.6l93.7-76.1C488.7,220,493.1,203.5,487.8,187.8z M449.9,213.6L361,285.9
	c-8.8,7.1-12.7,18.8-10,29.8l26.9,109.2c1.4,6.4-1.1,10.8-2.8,12.9c-2.6,3.3-6.6,5.4-10.7,5.4c-2.5,0-4.9-0.8-7.5-2.5l-97.3-59.7
	c-4.6-2.8-10-4.3-15.5-4.3c-5.5,0-10.9,1.5-15.6,4.4l-96.3,59.7c-6.1,4.1-14.4,2.3-18.8-3.4c-1.8-2.4-3.7-6.4-2-12.4l26.9-109.5
	c2.6-10.8-1.2-22.5-9.9-29.6l-87.6-72.1c-6.9-5.9-5-13.6-4.2-15.7c0.8-2.2,3.9-9.4,13-9.9l113.6-8.1c11.2-0.8,20.8-7.7,25.2-18.1
	l43.4-105.1c3.5-8.5,11.4-9.1,13.7-9.1s10.2,0.7,13.7,9.1l43.4,105.1c4.2,10.4,14,17.3,25.2,18.1l113.7,8.2c9,0.5,12.1,7.7,12.8,9.9
	C454.6,200.2,456.5,207.8,449.9,213.6z"/>
<path d="M479.2,81.4H362.5c-6.3,0-11.4-4.6-11.4-10.2S356.2,61,362.5,61h116.6c6.3,0,11.4,4.6,11.4,10.2S485.6,81.4,479.2,81.4z"/>
<path class="st0" d="M420.9,141c-5.7,0-10.2-5.1-10.2-11.4V12.8c0-6.3,4.6-11.4,10.2-11.4c5.7,0,10.2,5.1,10.2,11.4v116.6
	C431.1,135.8,426.6,141,420.9,141z"/>
</svg>
