<?xml version="1.0" encoding="utf-8"?>
<!-- Generator: Adobe Illustrator 22.0.1, SVG Export Plug-In . SVG Version: 6.00 Build 0)  -->
<svg version="1.1" id="圖層_1" xmlns="http://www.w3.org/2000/svg" xmlns:xlink="http://www.w3.org/1999/xlink" x="0px" y="0px"
	 viewBox="0 0 168.5 40.3" style="enable-background:new 0 0 168.5 40.3;" xml:space="preserve">
<style type="text/css">
	.st0{fill:#FFFFFF;}
</style>
<g>
	<g>
		<path class="st0" d="M53.5,38.8c1.9-7.5,3.7-15,5.6-22.5c0.2-0.8,0.4-1.6,0.6-2.4c0.6-2.2,0.8-2.4,3-2.6c2.1-0.2,3.7,0.5,4.6,2.1
			c0.5,1,1.1,0.7,2.2,0.1c2-1.1,4.1-2.2,6.2-2.7c5.9-1.3,9.6,2.3,8.4,8.1c-1.6,7-8.1,13-15.1,14.1c-3.6,0.5-3.6,0.5-4.5,4.2
			c-0.1,0.6-0.3,1.1-0.4,1.7C60.5,38.8,57,38.8,53.5,38.8z M67.1,26.9c3-1.2,5.3-2.9,7-5.3c0.6-0.8,0.8-2.4,0.4-3.1
			c-0.7-1.1-2.1-0.3-3.3,0.5C68.2,21,67.6,23.8,67.1,26.9z"/>
	</g>
	<g>
		<path class="st0" d="M126.4,38.8c2-8.4,4.1-16.7,6.1-25.1c0.4-1.7,0.9-2.2,2.7-2.2c2.6-0.1,4.6,0.4,5.1,3.1
			c1.2-0.7,2.1-1.3,3.1-1.9c3.5-2.1,6.9-2.7,10-1.5c2.4,0.9,3.7,2.9,3.5,5.6c-0.6,9.3-8.6,15.2-15.2,16.1c-3.4,0.5-3.4,0.5-4.3,3.9
			c-0.2,0.7-0.3,1.4-0.5,2C133.4,38.8,129.9,38.8,126.4,38.8z M140.2,26.9c2.7-1.6,5.3-3.2,6.8-6c0.4-0.7,0.7-2.1,0.4-2.3
			c-0.6-0.4-1.8-0.4-2.6,0C141.8,19.9,140.1,23.1,140.2,26.9z"/>
	</g>
	<g>
		<path class="st0" d="M85.5,5.3c3.9,0,7.5-0.1,11,0.1c0.8,0,1.6,0.9,1.9,1.6c0.7,1.7,1,3.6,1.5,5.4c0.1,0.4,0.3,0.8,0.5,1.5
			c1.5-2.2,2.9-4.1,4.2-6.1c1.2-1.8,2.5-2.7,4.5-2.6c2.3,0.1,4.7,0,7.4,0c-0.4,0.8-0.7,1.5-1.1,2c-6,8.1-11.9,16.2-17.9,24.3
			c-0.4,0.5-0.8,1-1.3,1.4c-2,1.7-3,1.6-3.6-0.5c-2.3-8.5-4.7-17-7-25.5C85.5,6.5,85.6,6,85.5,5.3z"/>
	</g>
	<g>
		<path class="st0" d="M43.1,5.3c-2.7,3.7-5.1,7-7.6,10.3c-3.7,5-7.4,10-11.1,15c-0.2,0.2-0.3,0.4-0.5,0.6c-1.2,1-2.4,2.5-3.6,2.7
			c-1.6,0.3-1.5-1.6-1.8-2.7c-1.6-5.6-3.1-11.2-4.6-16.8c-0.8-2.9-1.5-5.8-2.4-9.1c4.2,0,8.1-0.1,11.8,0.1c0.7,0,1.3,1.1,1.5,1.8
			c0.7,2,1.1,4.1,1.8,6.6c0.8-1.2,1.4-2,2.1-2.9c5-6.8,3-5.5,10.1-5.6C40.1,5.3,41.4,5.3,43.1,5.3z"/>
	</g>
	<g>
		<path class="st0" d="M116.4,22.3c0.7-2.9,1.5-5.9,2.1-8.8c0.3-1.2,0.7-1.8,2.1-1.7c2.3,0.1,4.6,0.1,6.9,0c1.1,0,1.4,0.3,1.1,1.4
			c-1.5,5.9-3,11.9-4.3,17.8c-0.4,1.6-1.1,2.2-2.7,2.1c-1.8-0.1-3.7,0-5.6,0c-2.3,0-2.3,0-1.8-2.2C114.9,28,115.7,25.2,116.4,22.3
			L116.4,22.3z"/>
	</g>
	<g>
		<path class="st0" d="M56,11.8c-0.1,0.6-0.1,1-0.2,1.5c-1.5,6.1-3,12.1-4.4,18.2c-0.3,1.3-0.8,1.8-2.2,1.7c-2.2-0.1-4.4,0-6.6,0
			c-1.2,0-1.5-0.4-1.2-1.6c1.5-6.1,3-12.2,4.5-18.3c0.2-0.8,0.4-1.5,1.5-1.5C50.2,11.8,53.1,11.8,56,11.8z"/>
	</g>
	<g>
		<path class="st0" d="M51.3,9.5c-2.8,0.1-3.9-0.5-4-2.4c0-0.7,0.2-1.7,0.6-2.4c2.2-3.3,7.7-4.5,9.9-2.2c0.9,0.9,1.1,2.1,0.3,3.5
			c-1.1,1.8-2.7,3-4.7,3.4C52.6,9.5,51.9,9.5,51.3,9.5z"/>
	</g>
	<g>
		<path class="st0" d="M131.3,4.9c-0.6,1-0.9,1.6-1.3,2.1c-2.4,2.6-6.9,3.4-9.2,1.8c-1.4-0.9-1.2-3.2,0.3-4.9c2-2.3,7.4-3.3,9.1-1.7
			C130.9,2.9,131,4.1,131.3,4.9z"/>
	</g>
</g>
</svg>
