<?xml version="1.0" standalone="no"?>
<!DOCTYPE svg PUBLIC "-//W3C//DTD SVG 1.1//EN" "http://www.w3.org/Graphics/SVG/1.1/DTD/svg11.dtd" >
<svg xmlns="http://www.w3.org/2000/svg">
<metadata>Generated by IcoMoon</metadata>
<defs>
<font id="icomoon" horiz-adv-x="1024">
<font-face units-per-em="1024" ascent="960" descent="-64" />
<missing-glyph horiz-adv-x="1024" />
<glyph unicode="&#x20;" horiz-adv-x="512" d="" />
<glyph unicode="&#xe900;" d="M511.819-60.749c282.458 0 510.736 228.278 510.736 508.93 0.361 281.374-228.639 509.291-510.736 509.291s-510.736-228.278-510.736-508.93c0-281.013 229-509.291 510.736-509.291zM644.38 558.708l-30.341 23.117-31.063-22.033 12.642 35.759-30.341 22.756 38.287-0.722 12.281 35.759 11.197-36.12 38.287-0.722-31.424-21.672 10.475-36.12zM619.096 773.26l36.12 12.281-22.033-31.063 23.117-30.341-36.481 11.197-22.033-31.063-0.361 37.565-36.481 11.197 36.12 12.281-0.722 37.565 22.756-29.618zM471.004 886.677l36.12-12.281 22.756 30.702-0.361-37.926 36.12-12.281-36.481-11.197-0.361-37.926-22.033 31.063-36.481-11.558 22.756 30.702-22.033 30.702zM504.957 517.531l22.033 31.063 0.361-37.926 36.481-11.558-36.12-12.281 0.722-37.926-22.756 30.702-36.12-12.281 22.033 31.063-22.756 30.341 36.12-11.197zM221.776 748.337l35.036 107.276 35.036-107.276 113.417 0.361-92.467-66.461 35.398-107.276-91.745 66.822-91.745-66.461 35.398 107.276-92.106 66.099 113.778-0.361z" />
<glyph unicode="&#xe901;" glyph-name="1" horiz-adv-x="501" d="M0-64v14.322h28.643c42.965 0 85.93 35.804 93.091 78.769l136.056 737.566c14.322 64.448-14.322 85.93-64.448 85.93h-42.965v14.322c78.769 7.161 243.469 28.643 336.559 93.091h14.322l-164.699-930.909c-7.161-42.965 21.483-78.769 64.448-78.769h28.643v-14.322h-429.65z" />
<glyph unicode="&#xe902;" glyph-name="2" horiz-adv-x="838" d="M193.343 637.762l-28.643 214.825c85.93 71.608 229.147 107.413 343.72 107.413 214.825 0 350.881-107.413 322.238-286.434-42.965-236.308-365.203-436.811-522.741-551.385h293.594c85.93 0 143.217 42.965 207.664 136.056h14.322l-143.217-322.238h-680.28v14.322c229.147 214.825 565.706 501.259 601.51 737.566 21.483 136.056-35.804 221.986-157.538 214.825-128.895-7.161-214.825-100.252-243.469-264.951h-7.161z" />
<glyph unicode="&#xe903;" glyph-name="3" horiz-adv-x="730" d="M153.935 866.301c66.928 53.542 167.32 93.699 301.176 93.699 194.092 0 294.484-87.007 274.405-220.863-20.078-120.471-127.163-200.784-220.863-207.477 100.392-20.078 200.784-93.699 174.013-254.327-53.542-267.712-414.954-414.954-682.667-314.562l6.693 13.386c214.17-6.693 428.34 127.163 461.804 321.255 26.771 160.627-87.007 220.863-220.863 220.863l6.693 13.386c120.471 0 254.327 93.699 267.712 227.556 6.693 93.699-46.85 147.242-140.549 140.549-107.085 0-174.013-80.314-194.092-227.556h-13.386l-20.078 194.092z" />
<glyph unicode="&#xe904;" glyph-name="4" horiz-adv-x="859" d="M665.958 243.916l-35.804-214.825c-7.161-42.965 21.483-78.769 64.448-78.769h14.322v-14.322h-401.007v14.322h14.322c42.965 0 85.93 28.643 93.091 71.608l35.804 214.825h-451.133v14.322l780.531 708.923h14.322l-107.413-594.35h64.448c50.126 0 71.608 14.322 93.091 42.965h14.322l-71.608-171.86h-121.734zM472.615 365.65l50.126 279.273-315.077-279.273h264.951z" />
<glyph unicode="&#xe905;" glyph-name="5" horiz-adv-x="765" d="M680.506 746.127l-369.418-32.405-64.81-142.582c298.127 71.291 466.633-58.329 414.785-278.684-71.291-317.57-492.557-408.304-667.544-324.051l6.481 12.962c110.177-6.481 395.342 77.772 447.19 291.646 38.886 155.544-110.177 226.835-324.051 149.063l-6.481 6.481 181.468 440.709 343.494 25.924c51.848 0 90.734 25.924 116.658 64.81h12.962l-90.734-213.873z" />
<glyph unicode="&#xe906;" glyph-name="6" horiz-adv-x="730" d="M300.373 441.173c129.707 170.667 477.867 157.013 423.253-177.493-27.307-170.667-170.667-320.853-409.6-327.68s-354.987 136.533-300.373 430.080c61.44 348.16 307.2 614.4 716.8 593.92v-6.827c-354.987-109.227-443.733-314.027-491.52-607.573-40.96-218.453-27.307-341.333 88.747-341.333 109.227 0 170.667 116.053 191.147 245.76 27.307 150.187-6.827 211.627-75.093 218.453-54.613 6.827-102.4-13.653-136.533-40.96l-6.827 13.653z" />
<glyph unicode="&#xe907;" glyph-name="7" horiz-adv-x="790" d="M87.771 960h702.171l-248.686-424.229c-73.143-124.343-241.371-453.486-307.2-599.771h-190.171c102.4 146.286 314.514 468.114 402.286 607.086l138.971 234.057h-446.171c-58.514 0-95.086-29.257-124.343-87.771h-14.629l87.771 270.629z" />
<glyph unicode="&#xe908;" glyph-name="8" horiz-adv-x="779" d="M750.466 223.562c-35.068-182.356-203.397-287.562-434.849-287.562-182.356 0-343.671 70.137-308.603 252.493 28.055 140.274 147.288 203.397 245.479 238.466-70.137 56.11-119.233 133.26-98.192 259.507 21.041 168.329 168.329 273.534 350.685 273.534 168.329 0 294.575-91.178 266.521-238.466-21.041-105.205-112.219-175.342-217.425-210.411 112.219-63.123 224.438-126.247 196.384-287.562zM329.644-0.877c105.205-7.014 189.37 63.123 203.397 154.301s-49.096 140.274-175.342 210.411c-21.041 7.014-42.082 21.041-63.123 35.068-49.096-42.082-84.164-105.205-98.192-182.356-28.055-133.26 28.055-210.411 133.26-217.425v0zM343.671 756.603c-14.027-84.164 28.055-133.26 154.301-210.411 56.11 49.096 84.164 133.26 98.192 196.384 14.027 91.178-21.041 154.301-105.205 154.301-77.151 7.014-133.26-56.11-147.288-140.274z" />
<glyph unicode="&#xe909;" glyph-name="9" horiz-adv-x="730" d="M430.080 454.827c-129.707-170.667-484.693-150.187-423.253 177.493 34.133 191.147 184.32 320.853 409.6 327.68 238.933 6.827 348.16-136.533 300.373-430.080-61.44-341.333-307.2-614.4-716.8-593.92v6.827c354.987 102.4 443.733 307.2 491.52 600.747 40.96 225.28 34.133 348.16-81.92 348.16-109.227 0-163.84-109.227-191.147-238.933-20.48-150.187 6.827-211.627 75.093-225.28 47.787-6.827 95.573 13.653 129.707 40.96l6.827-13.653z" />
<glyph unicode="&#xe90a;" glyph-name="10" horiz-adv-x="1431" d="M0-42.959v14.027h28.055c42.082 0 84.164 35.068 91.178 77.151l133.26 722.411c14.027 63.123-14.027 84.164-63.123 84.164h-42.082v14.027c77.151 7.014 238.466 28.055 329.644 91.178h14.027l-161.315-911.781c-7.014-42.082 21.041-77.151 63.123-77.151h28.055v-14.027h-420.822zM1416.767 448c-56.11-308.603-238.466-512-483.945-512s-357.699 203.397-301.589 512c56.11 308.603 238.466 512 483.945 512s357.699-203.397 301.589-512zM848.658 448c-49.096-294.575-21.041-448.877 98.192-448.877s203.397 154.301 252.493 448.877c49.096 294.575 21.041 448.877-98.192 448.877s-196.384-147.288-252.493-448.877z" />
<glyph unicode="&#xe90b;" glyph-name="11" horiz-adv-x="1081" d="M0-64v14.322h28.643c42.965 0 85.93 35.804 93.091 78.769l136.056 737.566c14.322 64.448-14.322 85.93-64.448 85.93h-42.965v14.322c78.769 7.161 243.469 28.643 336.559 93.091h14.322l-164.699-930.909c-7.161-42.965 21.483-78.769 64.448-78.769h28.643v-14.322h-429.65zM580.028-64v14.322h28.643c42.965 0 85.93 35.804 93.091 78.769l128.895 737.566c14.322 64.448-14.322 85.93-64.448 85.93h-35.804v14.322c78.769 7.161 243.469 28.643 336.559 93.091h14.322l-164.699-930.909c-7.161-42.965 21.483-78.769 64.448-78.769h28.643v-14.322h-429.65z" />
<glyph unicode="&#xe90c;" glyph-name="12" horiz-adv-x="1389" d="M0-64v14.322h28.643c42.965 0 85.93 35.804 93.091 78.769l136.056 737.566c14.322 64.448-14.322 85.93-64.448 85.93h-42.965v14.322c78.769 7.161 243.469 28.643 336.559 93.091h14.322l-164.699-930.909c-7.161-42.965 21.483-78.769 64.448-78.769h28.643v-14.322h-429.65zM751.888 637.762l-28.643 221.986c78.769 64.448 221.986 100.252 343.72 100.252 214.825 0 350.881-107.413 322.238-286.434-42.965-236.308-365.203-436.811-522.741-551.385h293.594c85.93 0 143.217 42.965 207.664 136.056h14.322l-143.217-322.238h-680.28v14.322c229.147 214.825 565.706 501.259 601.51 737.566 21.483 136.056-35.804 221.986-157.538 214.825-128.895-7.161-214.825-100.252-243.469-264.951h-7.161z" />
<glyph unicode="&#xe90d;" glyph-name="13" horiz-adv-x="1237" d="M0 9.143v13.299h26.597c39.896 0 79.792 33.247 86.442 73.143l126.338 684.883c13.299 59.844-13.299 79.792-59.844 79.792h-39.896v13.299c73.143 6.649 226.078 26.597 312.519 86.442h13.299l-152.935-864.416c-6.649-39.896 19.948-73.143 59.844-73.143h26.597v-13.299h-398.961zM664.935 860.26c66.494 53.195 172.883 93.091 299.221 93.091 192.831 0 292.571-86.442 272.623-219.429-19.948-119.688-126.338-199.481-219.429-206.13 99.74-19.948 199.481-93.091 172.883-252.675-46.545-272.623-405.61-418.909-671.584-319.169l6.649 13.299c212.779-6.649 425.558 126.338 458.805 319.169 26.597 159.584-86.442 219.429-219.429 219.429l6.649 13.299c119.688 0 252.675 93.091 265.974 226.078 6.649 93.091-46.545 146.286-139.636 139.636-106.39-6.649-172.883-86.442-192.831-226.078h-13.299l-26.597 199.481z" />
<glyph unicode="&#xe90e;" glyph-name="14" horiz-adv-x="1411" d="M0-64v14.322h28.643c42.965 0 85.93 35.804 93.091 78.769l136.056 737.566c14.322 64.448-14.322 85.93-64.448 85.93h-42.965v14.322c78.769 7.161 243.469 28.643 336.559 93.091h14.322l-164.699-930.909c-7.161-42.965 21.483-78.769 64.448-78.769h28.643v-14.322h-429.65zM1217.343 243.916l-35.804-214.825c-7.161-42.965 21.483-78.769 64.448-78.769h14.322v-14.322h-408.168v14.322h14.322c42.965 0 85.93 28.643 93.091 71.608l35.804 214.825h-451.133v14.322l780.531 708.923h14.322l-107.413-594.35h64.448c50.126 0 71.608 14.322 93.091 42.965h14.322l-71.608-171.86h-114.573zM1024 365.65l50.126 279.273-315.077-279.273h264.951z" />
<glyph unicode="&#xe90f;" glyph-name="15" horiz-adv-x="1238" d="M0 7.291v12.962h25.924c38.886 0 77.772 32.405 84.253 71.291l123.139 667.544c12.962 58.329-12.962 77.772-58.329 77.772h-38.886v12.962c71.291 6.481 220.354 25.924 304.608 84.253h12.962l-149.063-842.532c-6.481-38.886 19.443-71.291 58.329-71.291h25.924v-12.962h-388.861zM1147.139 746.127l-362.937-25.924-64.81-149.063c298.127 71.291 466.633-58.329 414.785-278.684-71.291-317.57-492.557-408.304-667.544-324.051l6.481 12.962c110.177-6.481 395.342 77.772 447.19 291.646 38.886 155.544-110.177 226.835-324.051 149.063l-6.481 6.481 181.468 440.709 337.013 25.924c51.848 0 90.734 25.924 116.658 64.81h12.962l-90.734-213.873z" />
<glyph unicode="&#xe910;" glyph-name="16" horiz-adv-x="1324" d="M0-43.52v13.653h27.307c40.96 0 81.92 34.133 88.747 75.093l129.707 703.147c13.653 61.44-13.653 81.92-61.44 81.92h-40.96v13.653c75.093 6.827 232.107 27.307 320.853 88.747h13.653l-157.013-887.467c-6.827-40.96 20.48-75.093 61.44-75.093h27.307v-13.653h-409.6zM894.293 441.173c129.707 170.667 477.867 157.013 423.253-177.493-27.307-170.667-170.667-320.853-409.6-327.68s-354.987 136.533-300.373 430.080c61.44 348.16 307.2 614.4 716.8 593.92v-6.827c-354.987-102.4-443.733-307.2-498.347-600.747-40.96-218.453-27.307-341.333 88.747-341.333 109.227 0 170.667 116.053 191.147 245.76 27.307 150.187-6.827 211.627-75.093 218.453-47.787 6.827-95.573-6.827-129.707-34.133h-6.827z" />
<glyph unicode="&#xe911;" glyph-name="17" horiz-adv-x="1418" d="M0-64v14.322h28.643c42.965 0 85.93 35.804 93.091 78.769l136.056 737.566c14.322 64.448-14.322 85.93-64.448 85.93h-42.965v14.322c78.769 7.161 243.469 28.643 336.559 93.091h14.322l-164.699-930.909c-7.161-42.965 21.483-78.769 64.448-78.769h28.643v-14.322h-429.65zM730.406 938.517h687.441l-243.469-415.329c-71.608-121.734-236.308-443.972-300.755-580.028h-186.182c100.252 143.217 315.077 451.133 393.846 594.35l136.056 221.986h-436.811c-57.287 0-93.091-28.643-121.734-85.93h-14.322l85.93 264.951z" />
<glyph unicode="&#xe912;" glyph-name="18" horiz-adv-x="1347" d="M0-42.959v14.027h28.055c42.082 0 84.164 35.068 91.178 77.151l133.26 722.411c14.027 63.123-14.027 84.164-63.123 84.164h-42.082v14.027c77.151 7.014 238.466 28.055 329.644 91.178h14.027l-161.315-911.781c-7.014-42.082 21.041-77.151 63.123-77.151h28.055v-14.027h-420.822zM1318.575 223.562c-35.068-182.356-203.397-287.562-434.849-287.562-182.356 0-343.671 70.137-308.603 252.493 28.055 140.274 147.288 203.397 245.479 238.466-70.137 56.11-119.233 133.26-98.192 259.507 28.055 168.329 175.342 273.534 357.699 273.534 168.329 0 294.575-91.178 266.521-238.466-21.041-105.205-112.219-175.342-217.425-210.411 112.219-63.123 217.425-126.247 189.37-287.562zM897.753-0.877c105.205-7.014 189.37 63.123 203.397 154.301s-49.096 140.274-175.342 210.411c-14.027 7.014-35.068 21.041-56.11 35.068-49.096-42.082-84.164-105.205-98.192-189.37-28.055-126.247 21.041-203.397 126.247-210.411v0zM911.781 756.603c-14.027-84.164 28.055-133.26 154.301-210.411 56.11 49.096 84.164 133.26 98.192 196.384 14.027 91.178-21.041 154.301-98.192 161.315-84.164 0-140.274-63.123-154.301-147.288z" />
<glyph unicode="&#xe913;" glyph-name="19" horiz-adv-x="1350" d="M0-9.748v13.563h27.126c40.689 0 81.377 33.907 88.159 74.596l128.848 698.49c13.563 61.033-13.563 81.377-61.033 81.377h-40.689v13.563c74.596 6.781 230.57 27.126 318.728 88.159h13.563l-155.974-881.589c-6.781-40.689 20.344-74.596 61.033-74.596h27.126v-13.563h-406.887zM1051.126 458.172c-128.848-176.318-481.483-155.974-420.45 176.318 33.907 183.099 176.318 318.728 406.887 325.51 237.351 6.781 345.854-135.629 298.384-427.232-61.033-339.073-305.166-617.113-712.053-589.987v6.781c352.636 101.722 440.795 305.166 488.265 596.768 40.689 223.788 33.907 345.854-81.377 345.854-108.503 0-162.755-115.285-189.881-244.132-27.126-142.411 6.781-210.225 74.596-217.007 47.47-6.781 94.94 6.781 128.848 33.907l6.781-6.781z" />
<glyph unicode="&#xe914;" glyph-name="20" horiz-adv-x="1760" d="M189.37 644.384l-28.055 210.411c84.164 70.137 224.438 105.205 336.658 105.205 210.411 0 343.671-105.205 315.616-280.548-42.082-231.452-357.699-427.836-512-540.055h287.562c84.164 0 140.274 42.082 203.397 133.26h14.027l-140.274-315.616h-666.301v14.027c224.438 210.411 554.082 490.959 589.151 722.411 21.041 133.26-35.068 217.425-154.301 210.411-126.247-7.014-210.411-98.192-238.466-259.507h-7.014zM1746.411 448c-56.11-308.603-238.466-512-483.945-512s-357.699 196.384-301.589 512c56.11 308.603 238.466 512 483.945 512s357.699-203.397 301.589-512zM1178.301 448c-49.096-294.575-21.041-448.877 98.192-448.877s203.397 154.301 252.493 448.877c49.096 294.575 21.041 448.877-98.192 448.877s-203.397-147.288-252.493-448.877z" />
<glyph unicode="&#xe915;" glyph-name="21" horiz-adv-x="1389" d="M193.343 637.762l-28.643 214.825c85.93 71.608 229.147 107.413 343.72 107.413 214.825 0 350.881-107.413 322.238-286.434-42.965-236.308-365.203-436.811-522.741-551.385h293.594c85.93 0 143.217 42.965 207.664 136.056h14.322l-143.217-322.238h-680.28v14.322c229.147 214.825 565.706 501.259 601.51 737.566 21.483 136.056-35.804 221.986-157.538 214.825-128.895-7.161-214.825-100.252-243.469-264.951h-7.161zM887.944-64v14.322h28.643c42.965 0 85.93 35.804 93.091 78.769l136.056 737.566c14.322 64.448-14.322 85.93-64.448 85.93h-35.804v14.322c78.769 7.161 243.469 28.643 336.559 93.091h14.322l-164.699-930.909c-7.161-42.965 21.483-78.769 64.448-78.769h28.643v-14.322h-436.811z" />
<glyph unicode="&#xe916;" glyph-name="22" horiz-adv-x="1719" d="M193.343 637.762l-28.643 214.825c85.93 71.608 229.147 107.413 343.72 107.413 214.825 0 350.881-107.413 322.238-286.434-42.965-236.308-365.203-436.811-522.741-551.385h293.594c85.93 0 143.217 42.965 207.664 136.056h14.322l-143.217-322.238h-680.28v14.322c229.147 214.825 565.706 501.259 601.51 737.566 21.483 136.056-35.804 221.986-157.538 214.825-128.895-7.161-214.825-100.252-243.469-264.951h-7.161zM1074.126 637.762l-28.643 221.986c85.93 64.448 229.147 100.252 350.881 100.252 214.825 0 350.881-107.413 322.238-286.434-42.965-236.308-365.203-436.811-522.741-551.385h293.594c85.93 0 143.217 42.965 207.664 136.056h14.322l-143.217-322.238h-680.28v14.322c229.147 214.825 565.706 501.259 601.51 737.566 21.483 136.056-35.804 221.986-157.538 214.825-128.895-7.161-214.825-100.252-243.469-264.951h-14.322z" />
<glyph unicode="&#xe917;" glyph-name="23" horiz-adv-x="1516" d="M179.532 660.779l-26.597 199.481c79.792 66.494 212.779 99.74 319.169 99.74 199.481 0 325.818-99.74 299.221-265.974-39.896-219.429-339.117-405.61-485.403-512h272.623c79.792 0 132.987 39.896 192.831 126.338h13.299l-132.987-299.221h-631.688v13.299c212.779 199.481 525.299 465.455 558.545 684.883 19.948 126.338-33.247 206.13-146.286 199.481-119.688-6.649-199.481-93.091-226.078-246.026h-6.649zM944.208 860.26c66.494 53.195 172.883 93.091 299.221 93.091 192.831 0 292.571-86.442 272.623-219.429-19.948-119.688-126.338-199.481-219.429-206.13 99.74-19.948 199.481-93.091 172.883-252.675-46.545-272.623-405.61-418.909-671.584-319.169l6.649 13.299c212.779-6.649 425.558 126.338 458.805 319.169 26.597 159.584-86.442 219.429-219.429 219.429l6.649 13.299c119.688 0 252.675 93.091 265.974 226.078 6.649 93.091-46.545 146.286-139.636 139.636-113.039 6.649-179.532-73.143-199.481-212.779h-13.299l-19.948 186.182z" />
<glyph unicode="&#xe918;" glyph-name="24" horiz-adv-x="1733" d="M193.343 637.762l-28.643 214.825c85.93 71.608 229.147 107.413 343.72 107.413 214.825 0 350.881-107.413 322.238-286.434-42.965-236.308-365.203-436.811-522.741-551.385h293.594c85.93 0 143.217 42.965 207.664 136.056h14.322l-143.217-322.238h-680.28v14.322c229.147 214.825 565.706 501.259 601.51 737.566 21.483 136.056-35.804 221.986-157.538 214.825-128.895-7.161-214.825-100.252-243.469-264.951h-7.161zM1539.58 243.916l-35.804-214.825c-7.161-42.965 21.483-78.769 64.448-78.769h14.322v-14.322h-408.168v14.322h14.322c42.965 0 85.93 28.643 93.091 71.608l35.804 214.825h-451.133v14.322l787.692 708.923h14.322l-107.413-594.35h64.448c50.126 0 71.608 14.322 93.091 42.965h14.322l-71.608-164.699h-121.734zM1346.238 365.65l50.126 279.273-315.077-279.273h264.951z" />
<glyph unicode="&#xe919;" glyph-name="25" horiz-adv-x="1530" d="M174.987 635.949l-25.924 200.911c77.772 58.329 207.392 97.215 311.089 97.215 194.43 0 317.57-97.215 291.646-259.241-38.886-213.873-330.532-395.342-473.114-499.038h265.722c77.772 0 129.62 38.886 187.949 123.139h12.962l-129.62-291.646h-615.696v12.962c207.392 194.43 512 453.671 544.405 667.544 19.443 123.139-32.405 200.911-142.582 194.43-110.177-12.962-187.949-90.734-213.873-246.278h-12.962zM1445.266 746.127l-362.937-25.924-64.81-149.063c298.127 71.291 466.633-58.329 414.785-278.684-71.291-317.57-492.557-408.304-667.544-324.051l6.481 12.962c110.177-6.481 395.342 77.772 447.19 291.646 38.886 155.544-110.177 226.835-324.051 149.063l-12.962 6.481 181.468 440.709 343.494 25.924c51.848 0 90.734 25.924 116.658 64.81h12.962l-90.734-213.873z" />
<glyph unicode="&#xe91a;" glyph-name="26" horiz-adv-x="1638" d="M184.32 618.667l-27.307 211.627c81.92 61.44 218.453 102.4 327.68 102.4 204.8 0 334.507-102.4 307.2-273.067-40.96-225.28-348.16-416.427-498.347-525.653h279.893c81.92 0 136.533 40.96 197.973 129.707h13.653l-136.533-307.2h-648.533v13.653c218.453 204.8 539.307 477.867 573.44 703.147 20.48 129.707-34.133 211.627-150.187 204.8-116.053-13.653-197.973-95.573-225.28-259.413h-13.653zM1208.32 441.173c129.707 170.667 477.867 157.013 423.253-177.493-27.307-170.667-170.667-320.853-409.6-327.68s-354.987 143.36-300.373 430.080c61.44 348.16 307.2 614.4 716.8 593.92v-6.827c-354.987-102.4-443.733-307.2-498.347-600.747-40.96-218.453-27.307-341.333 88.747-341.333 109.227 0 170.667 116.053 191.147 245.76 27.307 150.187-6.827 211.627-75.093 218.453-47.787 6.827-95.573-6.827-129.707-34.133h-6.827z" />
<glyph unicode="&#xe91b;" glyph-name="27" horiz-adv-x="1740" d="M193.343 637.762l-28.643 214.825c85.93 71.608 229.147 107.413 343.72 107.413 214.825 0 350.881-107.413 322.238-286.434-42.965-236.308-365.203-436.811-522.741-551.385h293.594c85.93 0 143.217 42.965 207.664 136.056h14.322l-143.217-322.238h-680.28v14.322c229.147 214.825 565.706 501.259 601.51 737.566 21.483 136.056-35.804 221.986-157.538 214.825-128.895-7.161-214.825-100.252-243.469-264.951h-7.161zM1059.804 938.517h687.441l-243.469-415.329c-71.608-121.734-236.308-443.972-300.755-580.028h-186.182c100.252 143.217 315.077 451.133 393.846 594.35l136.056 229.147h-436.811c-57.287 0-93.091-28.643-121.734-85.93h-14.322l85.93 257.79z" />
<glyph unicode="&#xe91c;" glyph-name="28" horiz-adv-x="1669" d="M189.37 644.384l-28.055 210.411c84.164 70.137 224.438 105.205 336.658 105.205 210.411 0 343.671-105.205 315.616-280.548-42.082-231.452-357.699-427.836-512-540.055h287.562c84.164 0 140.274 42.082 203.397 133.26h14.027l-140.274-315.616h-666.301v14.027c224.438 210.411 554.082 490.959 589.151 722.411 21.041 133.26-35.068 217.425-154.301 210.411-126.247-7.014-210.411-98.192-238.466-259.507h-7.014zM1641.205 223.562c-35.068-182.356-203.397-287.562-434.849-287.562-182.356 0-343.671 70.137-308.603 252.493 28.055 140.274 147.288 203.397 245.479 238.466-70.137 56.11-119.233 133.26-98.192 259.507 28.055 168.329 168.329 273.534 350.685 273.534 168.329 0 294.575-91.178 266.521-238.466-21.041-105.205-112.219-175.342-217.425-210.411 112.219-63.123 224.438-126.247 196.384-287.562zM1220.384-0.877c105.205-7.014 189.37 63.123 203.397 154.301s-49.096 140.274-175.342 210.411c-21.041 14.027-42.082 21.041-63.123 42.082-49.096-42.082-84.164-105.205-98.192-189.37-28.055-133.26 28.055-210.411 133.26-217.425v0zM1234.411 756.603c-14.027-84.164 28.055-133.26 154.301-210.411 56.11 49.096 84.164 133.26 98.192 196.384 14.027 91.178-21.041 154.301-98.192 161.315-84.164 0-140.274-63.123-154.301-147.288z" />
<glyph unicode="&#xe91d;" glyph-name="29" horiz-adv-x="1661" d="M183.099 654.834l-27.126 203.444c81.377 67.815 217.007 101.722 325.51 101.722 203.444 0 332.291-101.722 305.166-271.258-40.689-223.788-345.854-413.669-495.046-522.172h278.040c81.377 0 135.629 40.689 196.662 128.848h13.563l-135.629-305.166h-644.238v13.563c217.007 203.444 535.735 474.702 569.642 698.49 20.344 128.848-33.907 210.225-149.192 203.444-122.066-6.781-203.444-94.94-230.57-250.914h-6.781zM1363.073 458.172c-128.848-176.318-481.483-155.974-420.45 176.318 33.907 183.099 176.318 318.728 406.887 325.51 237.351 6.781 345.854-135.629 298.384-427.232-61.033-339.073-305.166-617.113-712.053-589.987v6.781c352.636 101.722 440.795 305.166 488.265 596.768 40.689 223.788 33.907 345.854-81.377 345.854-108.503 0-162.755-115.285-189.881-244.132-27.126-142.411 6.781-210.225 74.596-217.007 47.47-6.781 94.94 6.781 128.848 33.907l6.781-6.781z" />
<glyph unicode="&#xe91e;" glyph-name="30" horiz-adv-x="1609" d="M152.935 860.26c66.494 53.195 172.883 93.091 299.221 93.091 192.831 0 292.571-86.442 272.623-219.429-19.948-119.688-126.338-199.481-219.429-206.13 99.74-19.948 199.481-93.091 172.883-252.675-53.195-259.325-412.26-405.61-678.234-305.87l6.649 13.299c212.779-6.649 425.558 126.338 458.805 319.169 26.597 159.584-86.442 219.429-219.429 219.429l6.649 13.299c119.688 0 252.675 93.091 265.974 226.078 6.649 93.091-46.545 146.286-139.636 139.636-106.39-6.649-172.883-86.442-192.831-226.078h-13.299l-19.948 186.182zM1595.844 474.597c-53.195-292.571-226.078-485.403-458.805-485.403s-339.117 192.831-285.922 485.403 219.429 485.403 458.805 485.403 339.117-192.831 285.922-485.403zM1057.247 474.597c-46.545-279.273-19.948-425.558 93.091-425.558s192.831 146.286 239.377 425.558 19.948 425.558-93.091 425.558-192.831-139.636-239.377-425.558z" />
<glyph unicode="&#xe91f;" glyph-name="31" horiz-adv-x="1223" d="M152.935 860.26c66.494 53.195 172.883 93.091 299.221 93.091 192.831 0 292.571-86.442 272.623-219.429-19.948-119.688-126.338-199.481-219.429-206.13 99.74-19.948 199.481-93.091 172.883-252.675-53.195-259.325-412.26-405.61-678.234-305.87l6.649 13.299c212.779-6.649 425.558 126.338 458.805 319.169 26.597 159.584-86.442 219.429-219.429 219.429l6.649 13.299c119.688 0 252.675 93.091 265.974 226.078 6.649 93.091-46.545 146.286-139.636 139.636-106.39-6.649-172.883-86.442-192.831-226.078h-13.299l-19.948 186.182zM758.026 9.143v13.299h26.597c39.896 0 79.792 33.247 86.442 73.143l126.338 684.883c13.299 59.844-13.299 79.792-59.844 79.792h-33.247v13.299c73.143 6.649 226.078 26.597 312.519 86.442h13.299l-152.935-864.416c-6.649-39.896 19.948-73.143 59.844-73.143h26.597v-13.299h-405.61z" />
<glyph unicode="&#xe920;" glyph-name="apr" horiz-adv-x="3115" d="M981.333 35.556c21.333-56.889 64-85.333 106.667-85.333h14.222v-14.222h-455.111v14.222h14.222c35.556 0 85.333 35.556 71.111 92.444l-35.556 177.778h-334.222l-106.667-177.778c-35.556-56.889 0-92.444 35.556-92.444h14.222v-14.222h-305.778v14.222h14.222c42.667 0 92.444 21.333 135.111 78.222l462.222 746.667c14.222 21.333 92.444 142.222 99.556 184.889h14.222l256-924.444zM682.667 277.333l-78.222 348.444-206.222-348.444h284.444zM1770.667 931.556c241.778 0 327.111-113.778 305.778-270.222-35.556-241.778-320-384-497.778-248.889v14.222c0 0 170.667-14.222 248.889 163.556 14.222 28.444 21.333 56.889 21.333 85.333 14.222 120.889-35.556 199.111-149.333 199.111h-92.444l-149.333-832c-7.111-49.778 28.444-92.444 78.222-92.444h21.333v-14.222h-433.778v14.222h21.333c49.778 0 99.556 42.667 106.667 92.444l142.222 796.444c7.111 49.778-28.444 85.333-78.222 85.333h-21.333v14.222l476.444-7.111zM2716.444 931.556c170.667 0 327.111-71.111 291.556-270.222-21.333-120.889-120.889-248.889-284.444-270.222 56.889-21.333 99.556-71.111 120.889-120.889 0-7.111 64-142.222 106.667-206.222 49.778-78.222 85.333-106.667 156.444-106.667v-14.222h-135.111c-156.444 0-263.111 35.556-305.778 149.333-21.333 56.889-64 199.111-78.222 241.778-14.222 56.889-42.667 92.444-78.222 92.444v14.222h42.667c78.222 0 163.556 42.667 206.222 163.556 7.111 14.222 14.222 42.667 14.222 71.111 21.333 135.111-42.667 199.111-135.111 199.111-35.556 0-92.444 0-106.667 0l-149.333-832c-7.111-49.778 28.444-92.444 78.222-92.444h28.444v-14.222h-433.778v14.222h21.333c49.778 0 99.556 42.667 106.667 85.333l142.222 789.333c7.111 49.778-28.444 92.444-78.222 92.444h-21.333v14.222h490.667z" />
<glyph unicode="&#xe921;" glyph-name="aug" horiz-adv-x="3344" d="M961.306 54.422c20.898-55.728 62.694-83.592 104.49-83.592h13.932v-13.932h-445.823v13.932h13.932c34.83 0 83.592 34.83 69.66 90.558l-34.83 174.15h-327.401l-104.49-174.15c-34.83-55.728 0-90.558 34.83-90.558h13.932v-13.932h-299.537v13.932h13.932c41.796 0 90.558 20.898 132.354 76.626l452.789 731.429c13.932 20.898 90.558 139.32 97.524 181.116h13.932l250.776-905.578zM668.735 291.265l-76.626 341.333-202.014-341.333h278.639zM2256.98 932.136v-13.932h-27.864c-41.796 0-76.626-27.864-83.592-62.694l-97.524-543.347c-41.796-229.878-215.946-369.197-466.721-369.197-299.537 0-431.891 139.32-390.095 369.197l97.524 543.347c6.966 41.796-20.898 69.66-62.694 69.66h-20.898v13.932h404.027v-13.932h-20.898c-41.796 0-76.626-27.864-83.592-69.66l-90.558-529.415c-34.83-195.048 48.762-320.435 215.946-320.435s299.537 118.422 327.401 306.503l97.524 550.313c6.966 41.796-20.898 69.66-62.694 69.66h-20.898v13.932h285.605zM3322.776 409.687c-41.796 0-76.626-20.898-83.592-62.694l-41.796-229.878c-83.592-83.592-271.673-181.116-494.585-181.116-313.469 0-494.585 195.048-438.857 508.517s292.571 508.517 626.939 508.517c153.252 0 299.537-34.83 369.197-76.626l-41.796-236.844h-13.932c-13.932 188.082-132.354 250.776-278.639 250.776-229.878 0-383.129-174.15-431.891-452.789-48.762-271.673 34.83-438.857 236.844-438.857 104.49 0 208.98 48.762 257.741 139.32l34.83 215.946c6.966 41.796-13.932 62.694-62.694 62.694h-20.898v13.932h404.027v-13.932h-20.898z" />
<glyph unicode="&#xe922;" glyph-name="dec" horiz-adv-x="3100" d="M680.329 931.945c329.644 0 504.986-189.37 448.877-490.959s-294.575-490.959-624.219-490.959h-504.986v14.027h21.041c49.096 0 98.192 42.082 105.205 91.178l140.274 785.534c7.014 42.082-28.055 77.151-77.151 77.151h-21.041v14.027h512zM329.644 13.151h175.342c203.397 0 357.699 168.329 399.781 427.836 49.096 266.521-49.096 434.849-252.493 434.849h-168.329l-154.301-862.685zM1858.63-49.973h-722.411v14.027h21.041c49.096 0 98.192 42.082 105.205 91.178l140.274 785.534c7.014 49.096-28.055 84.164-77.151 84.164h-21.041v14.027h540.055c63.123 0 147.288 14.027 175.342 28.055l-42.082-245.479h-14.027v14.027c14.027 84.164-28.055 140.274-112.219 140.274h-238.466l-70.137-406.795h189.37c70.137 0 126.247 49.096 140.274 119.233v14.027h14.027l-56.11-322.63h-14.027v14.027c14.027 70.137-28.055 119.233-98.192 119.233h-189.37l-70.137-392.767h182.356c140.274 0 245.479 84.164 315.616 224.438h14.027l-112.219-294.575zM3036.932 363.836l-35.068-245.479c-84.164-105.205-217.425-189.37-427.836-189.37-343.671 0-533.041 189.37-476.932 512 56.11 315.616 308.603 512 666.301 512 147.288 0 266.521-35.068 336.658-77.151l-42.082-238.466h-14.027c-21.041 182.356-126.247 259.507-280.548 259.507-224.438 0-385.753-168.329-434.849-448.877s49.096-448.877 259.507-455.89c217.425 0 343.671 91.178 434.849 371.726h14.027z" />
<glyph unicode="&#xe923;" glyph-name="feb" horiz-adv-x="2645" d="M839.111 718.222v14.222c14.222 85.333-28.444 135.111-113.778 142.222h-234.667l-78.222-412.444h192c71.111 0 128 49.778 142.222 120.889v14.222h14.222l-56.889-334.222h-14.222v14.222c14.222 71.111-28.444 120.889-99.556 120.889h-184.889l-64-355.556c-7.111-49.778 28.444-92.444 78.222-92.444h21.333v-14.222h-440.889v14.222h21.333c49.778 0 99.556 42.667 106.667 92.444l142.222 796.444c7.111 49.778-28.444 85.333-78.222 85.333h-21.333v14.222h547.556c64 0 149.333 14.222 177.778 28.444l-42.667-248.889h-14.222zM1585.778-64h-739.556v14.222h21.333c49.778 0 99.556 42.667 106.667 92.444l142.222 796.444c7.111 49.778-28.444 85.333-78.222 85.333h-21.333v14.222h547.556c64 0 149.333 14.222 177.778 28.444l-42.667-248.889h-14.222v14.222c14.222 85.333-28.444 142.222-113.778 142.222h-241.778l-71.111-412.444h192c71.111 0 128 49.778 142.222 120.889v14.222h14.222l-56.889-327.111h-14.222v14.222c14.222 71.111-28.444 120.889-99.556 120.889h-192l-71.111-398.222h184.889c142.222 0 248.889 85.333 320 227.556h14.222l-106.667-298.667zM2325.333 931.556c206.222 0 348.444-71.111 320-241.778-21.333-128-120.889-199.111-213.333-213.333 142.222-14.222 234.667-113.778 206.222-263.111-28.444-184.889-206.222-277.333-448-277.333h-448v14.222h21.333c49.778 0 99.556 42.667 106.667 85.333l142.222 789.333c7.111 49.778-28.444 85.333-78.222 85.333h-21.333v14.222l412.444 7.111zM2140.444 0c128 0 227.556 71.111 256 227.556 28.444 170.667-71.111 234.667-192 234.667v14.222c92.444 0 184.889 49.778 206.222 192 28.444 142.222-35.556 199.111-149.333 199.111h-42.667l-156.444-867.556h78.222z" />
<glyph unicode="&#xe924;" glyph-name="jul" horiz-adv-x="2122" d="M574.578 960v-11.378h-17.067c-39.822 0-79.644-34.133-85.333-73.956l-119.467-676.978c-28.444-170.667-193.422-278.756-352.711-261.689v11.378c102.4 39.822 159.289 147.911 176.356 256l125.156 671.289c5.689 39.822-22.756 73.956-62.578 73.956h-17.067l5.689 11.378h347.022zM1513.244 960v-11.378h-17.067c-34.133 0-62.578-22.756-68.267-51.2l-79.644-443.733c-34.133-187.733-176.356-301.511-381.156-301.511-244.622 0-352.711 113.778-318.578 301.511l79.644 443.733c5.689 34.133-17.067 56.889-51.2 56.889h-17.067v11.378h329.956v-11.378h-17.067c-34.133 0-62.578-22.756-68.267-56.889l-73.956-432.356c-28.444-159.289 39.822-261.689 176.356-261.689s244.622 96.711 267.378 250.311l79.644 449.422c5.689 34.133-17.067 56.889-51.2 56.889h-17.067v11.378h227.556zM2025.244 163.556h-585.956v11.378h17.067c39.822 0 79.644 34.133 85.333 73.956l113.778 631.467c5.689 39.822-22.756 73.956-62.578 73.956h-17.067v11.378h347.022v-11.378h-17.067c-39.822 0-79.644-34.133-85.333-73.956l-113.778-665.6h147.911c113.778 0 199.111 68.267 256 182.044h11.378l-96.711-233.244z" />
<glyph unicode="&#xe925;" glyph-name="jun" horiz-adv-x="2440" d="M565.158 943.213v-11.191h-16.787c-39.169 0-78.339-33.574-83.934-72.743l-117.508-665.88c-27.978-162.273-190.251-274.186-346.929-257.399v11.191c100.721 39.169 156.678 145.486 173.464 251.803l123.104 660.284c5.596 39.169-22.383 72.743-61.552 72.743h-16.787v11.191h346.929zM1488.437 943.213v-11.191h-16.787c-33.574 0-61.552-22.383-67.148-50.361l-78.339-436.459c-33.574-184.656-173.464-296.568-374.907-296.568-240.612 0-346.929 111.913-313.355 296.568l78.339 436.459c5.596 33.574-16.787 55.956-50.361 55.956h-16.787v11.191h324.546v-11.191h-16.787c-33.574 0-61.552-22.383-67.148-55.956l-72.743-425.268c-27.978-156.678 39.169-257.399 173.464-257.399s240.612 95.126 262.995 246.208l78.339 442.055c5.596 33.574-16.787 55.956-50.361 55.956h-16.787v11.191h223.825zM2439.694 943.213v-11.191h-22.383c-39.169 0-72.743-27.978-78.339-67.148l-106.317-576.35c-16.787-83.934-11.191-145.486-11.191-145.486h-11.191l-470.033 537.18-78.339-442.055c-5.596-39.169 22.383-67.148 55.956-67.148h22.383v-11.191h-341.333v11.191h22.383c39.169 0 72.743 27.978 78.339 67.148l100.721 581.945c22.383 83.934 16.787 139.891 16.787 139.891h11.191l470.033-537.18 78.339 442.055c5.596 39.169-16.787 67.148-55.956 67.148h-22.383v11.191h341.333z" />
<glyph unicode="&#xe926;" glyph-name="mar" horiz-adv-x="3418" d="M1238.486 67.459c0-55.351 34.595-89.946 83.027-89.946h20.757v-13.838h-415.135v13.838h20.757c27.676 0 62.27 27.676 62.27 62.27l34.595 498.162-339.027-449.73c0 0-69.189-83.027-83.027-152.216v0l-256 595.027-145.297-498.162c-6.919-27.676 13.838-62.27 41.514-62.27h20.757v-13.838h-283.676v13.838h20.757c48.432 0 96.865 34.595 117.622 89.946l276.757 892.541h13.838l304.432-705.73 532.757 705.73h13.838l-41.514-885.622zM2248.649 60.541c20.757-55.351 62.27-83.027 103.784-83.027h13.838v-13.838h-442.811v13.838h13.838c34.595 0 83.027 34.595 69.189 89.946l-34.595 172.973h-325.189l-103.784-172.973c-34.595-55.351 0-89.946 34.595-89.946h13.838v-13.838h-297.514v13.838h13.838c41.514 0 89.946 20.757 131.459 76.108l449.73 726.486c13.838 20.757 89.946 138.378 96.865 179.892h13.838l249.081-899.459zM1958.054 295.784l-76.108 339.027-200.649-339.027h276.757zM3030.486 932.324c166.054 0 318.27-69.189 283.676-262.919-20.757-117.622-110.703-249.081-269.838-262.919 55.351-20.757 96.865-76.108 117.622-124.541 0-6.919 62.27-138.378 103.784-200.649 48.432-76.108 83.027-103.784 152.216-103.784v-13.838h-131.459c-152.216 0-256 34.595-297.514 145.297-20.757 55.351-62.27 193.73-76.108 235.243-13.838 55.351-41.514 89.946-76.108 89.946v13.838h41.514c76.108 0 159.135 41.514 200.649 159.135 6.919 13.838 13.838 41.514 13.838 69.189 20.757 131.459-41.514 193.73-131.459 193.73-34.595 0-89.946 0-103.784 0l-145.297-809.514c-6.919-48.432 27.676-89.946 76.108-89.946h13.838v-13.838h-422.054v13.838h20.757c48.432 0 96.865 41.514 103.784 83.027l138.378 768c6.919 48.432-27.676 89.946-76.108 89.946h-20.757v13.838l484.324 6.919z" />
<glyph unicode="&#xe927;" glyph-name="may" horiz-adv-x="3363" d="M1238.486 67.459c0-55.351 34.595-89.946 83.027-89.946h20.757v-13.838h-415.135v13.838h20.757c27.676 0 62.27 27.676 62.27 62.27l34.595 498.162-339.027-449.73c0 0-69.189-83.027-83.027-152.216v0l-256 595.027-145.297-498.162c-6.919-27.676 13.838-62.27 41.514-62.27h20.757v-13.838h-283.676v13.838h20.757c48.432 0 96.865 34.595 117.622 89.946l276.757 892.541h13.838l304.432-705.73 532.757 705.73h13.838l-41.514-885.622zM2248.649 60.541c20.757-55.351 62.27-83.027 103.784-83.027h13.838v-13.838h-442.811v13.838h13.838c34.595 0 83.027 34.595 69.189 89.946l-34.595 172.973h-325.189l-103.784-172.973c-34.595-55.351 0-89.946 34.595-89.946h13.838v-13.838h-297.514v13.838h13.838c41.514 0 89.946 20.757 131.459 76.108l449.73 726.486c13.838 20.757 89.946 138.378 96.865 179.892h13.838l249.081-899.459zM1958.054 295.784l-76.108 339.027-200.649-339.027h276.757zM3362.595 932.324v-13.838h-20.757c-55.351 0-117.622-41.514-152.216-83.027l-352.865-428.973-62.27-339.027c-6.919-48.432 27.676-89.946 76.108-89.946h20.757v-13.838h-422.054v13.838h20.757c48.432 0 96.865 41.514 103.784 83.027l55.351 345.946-186.811 435.892c-20.757 41.514-69.189 76.108-124.541 76.108h-20.757v13.838h456.649v-13.838h-20.757c-41.514 0-76.108-48.432-62.27-83.027l138.378-359.784 269.838 359.784c27.676 41.514 6.919 83.027-34.595 83.027h-20.757v13.838h339.027z" />
<glyph unicode="&#xe928;" glyph-name="nov" horiz-adv-x="3545" d="M1292.359 938.814v-14.124h-28.248c-49.434 0-91.807-35.31-98.869-84.745l-127.117-720.331c-21.186-105.931-14.124-176.552-14.124-176.552h-14.124l-586.152 670.897-98.869-550.841c-7.062-49.434 21.186-84.745 70.621-84.745h28.248v-14.124h-423.724v14.124h28.248c49.434 0 91.807 35.31 98.869 84.745l127.117 720.331c21.186 105.931 14.124 176.552 14.124 176.552h14.124l586.152-670.897 98.869 550.841c7.062 49.434-21.186 84.745-70.621 84.745h-28.248v14.124h423.724zM2386.979 451.531c-56.497-310.731-303.669-508.469-635.586-508.469s-515.531 190.676-459.034 508.469c56.497 310.731 303.669 508.469 635.586 508.469s515.531-197.738 459.034-508.469zM2160.993 451.531c49.434 275.421-42.372 451.972-240.11 451.972s-353.103-169.49-395.476-451.972c-49.434-275.421 42.372-451.972 240.11-451.972s346.041 176.552 395.476 451.972zM3545.159 938.814v-14.124h-14.124c-42.372 0-91.807-21.186-134.179-77.683l-459.034-727.393c-14.124-21.186-91.807-141.241-98.869-183.614h-14.124l-261.297 911.007c-21.186 56.497-63.559 77.683-105.931 77.683h-14.124v14.124h451.972v-14.124h-14.124c-35.31 0-77.683-28.248-70.621-84.745l134.179-579.090 346.041 579.090c35.31 56.497 0 84.745-35.31 84.745h-14.124v14.124h303.669z" />
<glyph unicode="&#xe929;" glyph-name="oct" horiz-adv-x="3267" d="M1107.592 444.517c-55.728-313.469-299.537-508.517-640.871-508.517s-515.483 195.048-459.755 508.517c55.728 313.469 299.537 508.517 640.871 508.517s515.483-195.048 459.755-508.517zM877.714 444.517c48.762 278.639-41.796 445.823-243.81 445.823s-348.299-174.15-397.061-445.823c-48.762-278.639 41.796-445.823 243.81-445.823s348.299 167.184 397.061 445.823zM2173.388 367.891l-27.864-243.81c-83.592-104.49-215.946-188.082-424.925-188.082-341.333 0-529.415 188.082-473.687 508.517 55.728 313.469 306.503 508.517 661.769 508.517 146.286 0 264.707-34.83 334.367-76.626l-41.796-236.844h-13.932c-20.898 181.116-125.388 257.741-278.639 257.741-222.912 0-383.129-167.184-431.891-445.823s48.762-445.823 257.741-452.789c215.946 0 341.333 90.558 431.891 369.197h6.966zM3225.252 716.19h-13.932v13.932c13.932 83.592-27.864 139.32-111.456 139.32h-188.082l-146.286-815.020c-6.966-48.762 27.864-83.592 76.626-83.592h20.898v-13.932h-424.925v13.932h20.898c48.762 0 90.558 34.83 104.49 83.592l146.286 821.986h-188.082c-83.592 0-146.286-55.728-167.184-139.32v-13.932h-13.932l34.83 236.844c20.898-13.932 97.524-27.864 160.218-27.864h557.279c62.694 0 139.32 13.932 167.184 27.864l-34.83-243.81z" />
<glyph unicode="&#xe92a;" glyph-name="sep" horiz-adv-x="2602" d="M617.205 455.014c77.151-56.11 112.219-126.247 84.164-231.452-42.082-182.356-196.384-287.562-420.822-287.562-126.247 0-238.466 35.068-280.548 84.164-14.027 56.11 28.055 175.342 77.151 238.466h14.027c-35.068-147.288 49.096-266.521 217.425-266.521 119.233 0 203.397 70.137 224.438 161.315 7.014 56.11-21.041 98.192-84.164 147.288l-224.438 154.301c-84.164 63.123-112.219 154.301-84.164 252.493 35.068 147.288 161.315 245.479 336.658 245.479 42.082 0 126.247-7.014 189.37-14.027h91.178l-63.123-203.397h-7.014c14.027 98.192-56.11 161.315-175.342 161.315-112.219 0-189.37-63.123-210.411-133.26-7.014-56.11 28.055-98.192 84.164-133.26l231.452-175.342zM1500.932-49.973h-729.425v14.027h21.041c49.096 0 98.192 42.082 105.205 91.178l140.274 785.534c7.014 49.096-28.055 84.164-77.151 84.164h-21.041v14.027h540.055c63.123 0 147.288 14.027 175.342 28.055l-42.082-252.493h-14.027v14.027c14.027 84.164-28.055 140.274-112.219 140.274h-238.466l-70.137-406.795h189.37c70.137 0 126.247 49.096 140.274 119.233v14.027h14.027l-56.11-322.63h-14.027v14.027c14.027 70.137-28.055 119.233-98.192 119.233h-189.37l-70.137-392.767h182.356c140.274 0 245.479 84.164 315.616 224.438h21.041l-112.219-287.562zM2293.479 931.945c238.466 0 322.63-112.219 301.589-266.521-35.068-238.466-315.616-378.74-490.959-245.479v14.027c0 0 168.329-14.027 245.479 161.315 14.027 28.055 21.041 56.11 21.041 84.164 14.027 119.233-35.068 196.384-147.288 196.384h-91.178l-147.288-820.603c-7.014-49.096 28.055-91.178 77.151-91.178h21.041v-14.027h-427.836v14.027h21.041c49.096 0 98.192 42.082 105.205 91.178l140.274 785.534c7.014 49.096-28.055 77.151-77.151 77.151h-21.041v14.027h469.918z" />
<glyph unicode="&#xe92b;" glyph-name="2018" horiz-adv-x="3142" d="M189.37 644.384l-28.055 210.411c84.164 70.137 224.438 105.205 336.658 105.205 210.411 0 343.671-105.205 315.616-280.548-42.082-231.452-357.699-427.836-512-540.055h287.562c84.164 0 140.274 42.082 203.397 133.26h14.027l-140.274-315.616h-666.301v14.027c224.438 210.411 554.082 490.959 589.151 722.411 21.041 133.26-35.068 217.425-154.301 210.411-126.247-7.014-210.411-98.192-238.466-259.507h-7.014zM1746.411 448c-56.11-308.603-238.466-512-483.945-512s-357.699 196.384-301.589 512c56.11 308.603 238.466 512 483.945 512s357.699-203.397 301.589-512zM1178.301 448c-49.096-294.575-21.041-448.877 98.192-448.877s203.397 154.301 252.493 448.877c49.096 294.575 21.041 448.877-98.192 448.877s-203.397-147.288-252.493-448.877zM1795.507-42.959v14.027h28.055c42.082 0 84.164 35.068 91.178 77.151l126.247 722.411c14.027 63.123-14.027 84.164-63.123 84.164h-35.068v14.027c77.151 7.014 238.466 28.055 329.644 91.178h14.027l-161.315-911.781c-7.014-42.082 21.041-77.151 63.123-77.151h28.055v-14.027h-420.822zM3114.082 223.562c-35.068-182.356-203.397-287.562-434.849-287.562-182.356 0-343.671 70.137-308.603 252.493 28.055 140.274 147.288 203.397 245.479 238.466-70.137 56.11-119.233 133.26-98.192 259.507 28.055 168.329 175.342 273.534 350.685 273.534 168.329 0 294.575-91.178 266.521-238.466-21.041-105.205-112.219-175.342-217.425-210.411 119.233-63.123 224.438-126.247 196.384-287.562zM2693.26-0.877c105.205-7.014 189.37 63.123 203.397 154.301s-49.096 140.274-175.342 210.411c-21.041 14.027-42.082 21.041-63.123 42.082-49.096-42.082-84.164-105.205-98.192-189.37-21.041-133.26 28.055-210.411 133.26-217.425v0zM2707.288 756.603c-14.027-84.164 28.055-133.26 154.301-210.411 56.11 49.096 84.164 133.26 98.192 196.384 14.027 91.178-21.041 154.301-98.192 161.315-84.164 0-140.274-63.123-154.301-147.288z" />
<glyph unicode="&#xe92c;" glyph-name="2017" horiz-adv-x="3184" d="M189.37 644.384l-28.055 210.411c84.164 70.137 224.438 105.205 336.658 105.205 210.411 0 343.671-105.205 315.616-280.548-42.082-231.452-357.699-427.836-512-540.055h287.562c84.164 0 140.274 42.082 203.397 133.26h14.027l-140.274-315.616h-666.301v14.027c224.438 210.411 554.082 490.959 589.151 722.411 21.041 133.26-35.068 217.425-154.301 210.411-126.247-7.014-210.411-98.192-238.466-259.507h-7.014zM1746.411 448c-56.11-308.603-238.466-512-483.945-512s-357.699 203.397-301.589 512c56.11 308.603 238.466 512 483.945 512s357.699-203.397 301.589-512zM1178.301 448c-49.096-294.575-21.041-448.877 98.192-448.877s203.397 154.301 252.493 448.877c49.096 294.575 21.041 448.877-98.192 448.877s-203.397-147.288-252.493-448.877zM1795.507-42.959v14.027h28.055c42.082 0 84.164 35.068 91.178 77.151l126.247 722.411c14.027 63.123-14.027 84.164-63.123 84.164h-35.068v14.027c77.151 7.014 238.466 28.055 329.644 91.178h14.027l-161.315-911.781c-7.014-42.082 21.041-77.151 63.123-77.151h28.055v-14.027h-420.822zM2510.904 938.959h673.315l-238.466-406.795c-70.137-119.233-231.452-434.849-294.575-568.11h-182.356c98.192 140.274 308.603 441.863 385.753 582.137l133.26 224.438h-427.836c-56.11 0-91.178-28.055-119.233-84.164h-14.027l84.164 252.493z" />
<glyph unicode="&#xe92d;" d="M560.943 753.394l36.481-11.197 0.361-37.926 22.033 31.063 36.12-11.197-22.756 30.341 21.672 31.063-35.759-12.281-22.756 29.98 0.722-37.565z" />
<glyph unicode="&#xe92e;" d="M626.32 617.222l-11.197 36.481-12.281-36.12-38.287 0.722 30.702-22.756-12.642-35.759 31.063 22.033 30.702-23.117-11.197 36.12 30.702 21.672z" />
<glyph unicode="&#xe92f;" d="M165.068 574.962l91.745 66.822 91.383-66.822-35.398 107.276 92.106 66.461-113.778-0.361-34.314 107.637-35.036-107.637-113.417 0.361 91.745-66.461z" />
<glyph unicode="&#xe930;" d="M469.559 467.324l36.12 12.281 22.756-29.98-0.722 37.565 36.12 12.281-36.481 11.197-0.361 37.926-22.033-31.063-36.12 11.197 22.756-30.341z" />
<glyph unicode="&#xe931;" d="M506.401 836.831l22.033-31.063 0.361 37.926 36.481 11.558-36.12 11.558 0.722 38.287-22.756-30.702-36.12 12.281 22.033-30.702-22.756-30.702z" />
<glyph unicode="&#xe932;" d="M1024 448.181c0 282.458-229.362 511.819-512.181 511.819v-511.819h-511.819c0-282.819 229.362-512.181 511.819-512.181 282.819 0 512.181 229.362 512.181 512.181z" />
<glyph unicode="&#xe933;" d="M270.538 839.359l8.308-29.98c-7.585 1.445-15.17 2.528-23.117 2.528s-15.893-0.722-23.117-2.528l8.308 29.98 14.087 51.29c-24.2-14.087-47.317-30.341-68.989-48.040l14.448-14.087 22.033-22.033c-15.17-4.696-28.896-13.003-40.093-23.117l-7.946 30.341-3.973 15.532c-14.448-13.003-28.174-26.729-40.816-41.177l15.532-3.973 30.341-7.946c-10.475-11.558-18.421-25.284-23.117-40.454l-23.117 22.033-13.726 14.448c-17.699-21.672-33.23-44.428-47.317-68.628l50.568 13.726 29.98 8.308c-1.445-7.585-2.528-15.17-2.528-23.117s0.722-15.893 2.528-23.478l-81.992 22.394c-42.26-74.407-66.822-161.095-66.822-253.201h511.819v511.819c-93.189 0-180.6-24.923-255.729-68.267l14.448-52.374zM255.368 773.982c39.371 0 71.517-32.147 71.517-71.517s-32.147-71.517-71.517-71.517-71.517 32.147-71.517 71.517c0 39.732 32.147 71.517 71.517 71.517zM89.577 606.747l61.765 62.849c4.696-15.17 13.003-28.896 23.478-40.454l-85.243-22.394zM200.104 576.406l-40.454-39.732 14.448 54.902 7.946 30.341c11.558-10.475 25.284-18.421 40.454-23.478l-22.394-22.033zM270.538 565.57l-15.17-54.541-15.17 54.541-8.308 30.341c7.585-1.445 15.17-2.528 23.478-2.528 7.946 0 15.893 0.722 23.478 2.528l-8.308-30.341zM310.993 576.406l-22.394 22.033c15.17 4.696 28.896 13.003 40.454 23.478l7.946-30.341 14.448-54.902-40.454 39.732zM366.617 621.195l-30.341 7.946c10.475 11.558 18.421 25.284 23.478 40.454l22.033-22.394 39.732-40.454-54.902 14.448zM392.262 687.295l-30.341-8.308c1.806 7.585 2.528 15.532 2.528 23.478s-0.722 15.532-2.528 23.117l29.98-8.308 54.541-14.809-54.18-15.17zM421.52 798.183l-61.765-62.849c-4.696 15.17-13.003 28.896-23.117 40.454l30.341 7.946 54.541 14.448zM310.993 828.523l40.454 39.732-14.448-54.902-7.946-30.341c-11.558 10.475-25.284 18.421-40.093 23.117l22.033 22.394z" />
<glyph unicode="&#xe934;" d="M255.368 773.982c39.371 0 71.517-32.147 71.517-71.517s-32.147-71.517-71.517-71.517-71.517 32.147-71.517 71.517c0 39.732 32.147 71.517 71.517 71.517z" />
<glyph unicode="&#xe935;" d="M359.754 734.973l22.033 22.394 39.732 40.093-85.243-22.394c10.836-11.558 18.782-25.284 23.478-40.093z" />
<glyph unicode="&#xe936;" d="M232.974 807.935c7.585 1.445 15.17 2.528 23.117 2.528s15.893-0.722 23.117-2.528l-8.308 29.98-14.448 52.013c-0.361-0.361-1.084-0.722-1.445-1.084l-14.087-50.929-7.946-29.98z" />
<glyph unicode="&#xe937;" d="M359.754 668.873c-4.696-15.17-13.003-28.896-23.478-40.093l85.243-22.394-39.732 40.093-22.033 22.394z" />
<glyph unicode="&#xe938;" d="M182.767 782.29c11.558 10.475 25.284 18.421 40.093 23.117l-22.033 22.033-14.448 14.087c-5.418-4.334-10.475-9.030-15.532-13.726l3.973-15.532 7.946-29.98z" />
<glyph unicode="&#xe939;" d="M362.644 724.859c1.445-7.585 2.528-15.17 2.528-23.117s-0.722-15.893-2.528-23.478l30.341 8.308 54.541 15.17-84.882 23.117z" />
<glyph unicode="&#xe93a;" d="M337.36 811.908l14.448 54.541-40.454-39.371-22.033-22.033c15.17-4.696 28.896-13.003 40.093-23.117l7.946 29.98z" />
<glyph unicode="&#xe93b;" d="M149.537 678.265c-1.806 7.585-2.528 15.532-2.528 23.478s0.722 15.532 2.528 23.117l-29.98-8.308-50.568-13.726c-0.361-0.722-0.722-1.445-1.084-2.167l51.651-14.087 29.98-8.308z" />
<glyph unicode="&#xe93c;" d="M232.974 595.911l8.308-30.341 15.17-54.18 15.17 54.18 8.308 30.341c-7.585-1.445-15.17-2.528-23.478-2.528s-15.893 1.084-23.478 2.528z" />
<glyph unicode="&#xe93d;" d="M152.065 734.973c4.696 15.17 12.642 28.896 23.117 40.093l-45.511 11.558c-4.696-5.057-9.030-10.475-13.726-15.893l14.087-14.087 22.033-21.672z" />
<glyph unicode="&#xe93e;" d="M174.82 591.577l-14.448-54.541 40.454 39.371 22.394 22.033c-15.17 4.696-28.896 13.003-40.454 23.478l-7.946-30.341z" />
<glyph unicode="&#xe93f;" d="M329.414 621.556c-11.558-10.475-25.284-18.421-40.454-23.478l22.394-22.033 40.454-39.371-14.448 54.541-7.946 30.341z" />
<glyph unicode="&#xe940;" d="M152.426 668.873l-22.033-22.394-39.732-40.093 85.243 22.394c-10.836 11.197-18.782 24.923-23.478 40.093z" />
<glyph unicode="&#xe941;" d="M1023.639 448.181c0-282.67-229.149-511.819-511.819-511.819s-511.819 229.149-511.819 511.819c0 282.67 229.149 511.819 511.819 511.819s511.819-229.149 511.819-511.819z" />
<glyph unicode="&#xe942;" d="M566.36 746.17c-11.92-7.224-33.953-17.699-31.424-44.066s26.729-55.625 19.505-86.327c-7.224-30.702-39.371-52.013-55.625-63.932s-49.123-53.457-12.642-95.718c-10.114 7.585-18.421 16.254-25.284 27.090-7.946 12.642-13.364 28.174-15.532 48.762-1.445 14.809-0.361 27.812 2.167 39.010 4.334 19.866 12.642 32.869 14.448 35.398l-3.612 2.528c-2.167-2.89-10.836-16.615-15.532-37.204-2.528-11.558-3.973-25.284-2.167-40.454 2.167-21.311 7.946-37.565 15.893-50.568 6.14-9.752 13.364-17.699 21.672-24.562h-0.361c-117.751 54.18-112.694 221.776 8.669 274.511 23.117 9.391 49.484 15.17 79.825 15.532v0zM467.753 652.258l2.167-19.866-18.060-8.669 19.866-3.612 2.528-19.866 9.391 17.699 19.866-3.612-13.726 14.448 9.752 17.699-18.060-8.669-13.726 14.448z" />
<glyph unicode="&#xe943;" d="M800.418 471.659c-10.475 9.030-27.451 26.729-51.651 16.254-24.562-10.475-44.789-42.622-76.213-45.15s-61.765 21.672-78.019 33.23c-16.254 11.558-66.099 29.98-94.995-17.338 3.973 11.92 9.752 22.394 18.060 32.147 9.752 11.197 22.756 21.311 41.538 29.618 13.364 6.14 26.368 8.669 37.926 9.752 20.227 1.806 35.036-1.806 38.287-2.89l1.445 4.334c-3.251 1.084-19.144 5.057-40.093 3.251-11.92-1.084-25.284-3.973-39.371-10.114-19.505-8.669-33.23-19.144-43.344-30.702-7.224-8.669-12.642-18.060-16.615-28.535v0.361c15.532 128.948 176.265 175.543 263.675 76.213 15.893-18.421 29.618-41.899 39.371-70.434v0zM680.499 536.674l-18.421-8.669-13.726 14.448 2.528-19.866-18.060-8.669 19.866-3.612 2.528-19.866 9.391 17.699 19.866-3.612-13.726 14.448 9.752 17.699z" />
<glyph unicode="&#xe944;" d="M610.066 163.194c5.418 12.642 16.615 34.314-1.084 54.18s-54.541 28.896-66.822 58.153c-12.642 28.896 0.722 65.377 6.863 84.521 5.779 19.144 7.585 72.24-46.595 84.521 12.281 0 24.562-2.167 36.12-6.863 13.726-5.418 27.451-14.809 41.177-29.98 10.114-10.836 16.615-22.394 21.311-32.869 7.946-18.421 9.030-33.953 9.391-37.204h4.334c0 3.612-1.084 19.505-9.752 39.010-4.696 10.836-11.92 22.756-22.033 33.953-14.448 15.532-28.535 25.645-42.983 31.424-10.475 4.334-21.311 6.14-32.147 6.863l0.361 0.361c127.142 26.006 222.138-111.972 155.677-226.111-11.92-21.311-29.618-41.538-53.819-59.959v0zM633.905 297.199l-14.087 14.448 9.391 17.699-18.060-8.669-13.726 14.448 2.89-19.866-18.060-8.669 19.866-3.612 2.528-19.866 9.391 17.699 19.866-3.612z" />
<glyph unicode="&#xe945;" d="M262.953 250.243c13.726-1.084 37.926-5.779 51.29 17.338s11.197 60.681 35.036 81.27c23.839 20.588 62.487 18.782 82.715 19.144 19.866 0 71.156 14.448 66.461 69.711 3.612-11.92 5.418-23.839 4.334-36.481-1.084-14.809-6.14-30.702-16.254-48.401-7.224-13.003-16.254-22.756-24.923-30.341-15.17-13.364-29.618-19.144-32.508-19.866l1.445-4.334c3.251 1.084 18.421 7.224 34.314 20.95 9.030 7.946 18.060 18.060 25.645 31.424 10.475 18.421 15.532 35.036 16.976 50.207 0.722 11.558-0.361 22.033-3.251 32.869l0.361-0.361c63.21-113.417-39.732-245.616-168.68-216.72-23.478 5.418-48.401 16.254-72.962 33.592v0zM398.042 268.303l9.030 17.699 19.866-3.612-13.726 14.448 9.752 17.699-18.060-8.669-13.726 14.448 2.528-19.866-18.060-8.669 19.866-3.612 2.528-19.866z" />
<glyph unicode="&#xe946;" d="M232.612 605.663c3.251-13.364 6.863-37.565 32.869-42.983s61.043 9.030 88.133-6.863c27.451-15.893 38.287-53.096 44.789-71.879s36.842-62.487 87.771-40.454c-10.114-7.224-20.95-13.003-33.23-16.254-14.448-3.612-31.063-4.334-51.29-0.361-14.448 2.89-26.729 7.946-36.842 13.726-17.699 10.114-27.451 21.672-29.618 24.2l-3.612-2.528c2.167-2.89 12.642-15.17 30.702-25.645 10.114-5.779 23.117-11.197 37.926-14.087 20.95-3.973 38.287-3.612 53.096 0.361 11.197 2.89 20.95 7.585 29.98 13.726v-0.361c-86.688-96.44-245.254-42.26-259.702 89.216-1.806 24.2 0.361 50.929 9.030 80.186v0zM293.294 483.578l19.866-3.612 2.89-19.866 9.391 17.699 19.866-3.251-14.087 14.448 9.391 17.699-18.060-9.030-14.087 14.448 2.89-19.866-18.060-8.669z" />
</font>
</defs>
</svg>
