<?xml version="1.0" encoding="utf-8"?>
<!-- Generator: Adobe Illustrator 22.0.1, SVG Export Plug-In . SVG Version: 6.00 Build 0)  -->
<svg version="1.1" id="Capa_1" xmlns="http://www.w3.org/2000/svg" xmlns:xlink="http://www.w3.org/1999/xlink" x="0px" y="0px"
	 viewBox="0 0 512 512" style="enable-background:new 0 0 512 512;" xml:space="preserve">
<style type="text/css">
	.st0{fill:none;stroke:#404040;stroke-width:30;stroke-linecap:round;stroke-miterlimit:10;}
	.st1{fill:#404040;}
</style>
<path class="st0" d="M94.9,103.5c30.9-30.5,71-52.6,116.9-61.7C336.2,17.4,457,98.6,481.4,223c24.5,124.4-56.7,245.2-181.2,269.6
	C175.8,517.1,55,435.9,30.6,311.4c-5.8-29.4-5.6-58.8-0.4-86.6"/>
<g>
	<line class="st0" x1="91.6" y1="107.8" x2="105" y2="15"/>
	<line class="st0" x1="91.6" y1="107.8" x2="184.3" y2="121.3"/>
</g>
<path class="st1" d="M273.1,244H239c-14.2,0-25.7-11.5-25.7-25.7s11.5-25.7,25.7-25.7h60.2c6.4,0,11.7-5.3,11.7-11.7
	s-5.3-11.7-11.7-11.7h-31.4v-23.9c0-6.4-5.3-11.7-11.7-11.7c-6.4,0-11.7,5.3-11.7,11.7v23.9H239c-27.1,0-49.1,22.1-49.1,49.1
	s22.1,49.1,49.1,49.1h34.1c14.2,0,25.7,11.5,25.7,25.7s-11.5,25.7-25.7,25.7h-61.2c-6.4,0-11.7,5.3-11.7,11.7
	c0,6.4,5.3,11.7,11.7,11.7h32.4v24.4c0,6.4,5.3,11.7,11.7,11.7c6.4,0,11.7-5.3,11.7-11.7v-24.4h5.7c0.1,0,0.2,0,0.3,0
	c26.8-0.4,48.4-22.3,48.4-49.1C322.1,266,300.1,244,273.1,244z"/>
</svg>
