<?xml version="1.0" encoding="utf-8"?>
<!-- Generator: Adobe Illustrator 22.0.1, SVG Export Plug-In . SVG Version: 6.00 Build 0)  -->
<svg version="1.1" id="Capa_1" xmlns="http://www.w3.org/2000/svg" xmlns:xlink="http://www.w3.org/1999/xlink" x="0px" y="0px"
	 viewBox="0 0 512 512" style="enable-background:new 0 0 512 512;" xml:space="preserve">
<style type="text/css">
	.st0{fill:#404040;}
</style>
<path class="st0" d="M255.2,285.8c75.7,0,137-61.4,137-137s-61.4-136.6-137-136.6s-137,61.4-137,136.6S179.5,285.8,255.2,285.8z
	 M255.2,47.9c55.5,0,100.9,45.4,100.9,100.9s-45.4,100.9-100.9,100.9s-100.9-45.4-100.9-100.9S199.7,47.9,255.2,47.9z"/>
<path class="st0" d="M18.1,499.8h475.8c10.1,0,18.1-8,18.1-18.1c0-94.6-76.9-171.9-171.9-171.9H171.9C77.3,309.8,0,386.7,0,481.7
	C0,491.8,8,499.8,18.1,499.8z M171.9,346h168.1c68.9,0,125.7,51.3,134.5,117.7H37.4C46.2,397.7,103,346,171.9,346z"/>
</svg>
