<?xml version="1.0" encoding="utf-8"?>
<!-- Generator: Adobe Illustrator 19.0.0, SVG Export Plug-In . SVG Version: 6.00 Build 0)  -->
<svg version="1.1" id="圖層_1" xmlns:ev="http://www.w3.org/2001/xml-events"
	 xmlns="http://www.w3.org/2000/svg" xmlns:xlink="http://www.w3.org/1999/xlink" x="0px" y="0px" viewBox="-313 114 333 333"
	 style="enable-background:new -313 114 333 333;" xml:space="preserve">
<desc></desc>
<g>
	<g>
		<rect id="p" x="-277" y="150" width="9" height="9"/>
	</g>
	<g>
		<rect id="p_1_" x="-277" y="159" width="9" height="9"/>
	</g>
	<g>
		<rect id="p_2_" x="-277" y="168" width="9" height="9"/>
	</g>
	<g>
		<rect id="p_3_" x="-277" y="177" width="9" height="9"/>
	</g>
	<g>
		<rect id="p_4_" x="-277" y="186" width="9" height="9"/>
	</g>
	<g>
		<rect id="p_5_" x="-277" y="195" width="9" height="9"/>
	</g>
	<g>
		<rect id="p_6_" x="-277" y="204" width="9" height="9"/>
	</g>
	<g>
		<rect id="p_7_" x="-277" y="222" width="9" height="9"/>
	</g>
	<g>
		<rect id="p_8_" x="-277" y="231" width="9" height="9"/>
	</g>
	<g>
		<rect id="p_9_" x="-277" y="240" width="9" height="9"/>
	</g>
	<g>
		<rect id="p_10_" x="-277" y="249" width="9" height="9"/>
	</g>
	<g>
		<rect id="p_11_" x="-277" y="258" width="9" height="9"/>
	</g>
	<g>
		<rect id="p_12_" x="-277" y="267" width="9" height="9"/>
	</g>
	<g>
		<rect id="p_13_" x="-277" y="303" width="9" height="9"/>
	</g>
	<g>
		<rect id="p_14_" x="-277" y="321" width="9" height="9"/>
	</g>
	<g>
		<rect id="p_15_" x="-277" y="330" width="9" height="9"/>
	</g>
	<g>
		<rect id="p_16_" x="-277" y="348" width="9" height="9"/>
	</g>
	<g>
		<rect id="p_17_" x="-277" y="357" width="9" height="9"/>
	</g>
	<g>
		<rect id="p_18_" x="-277" y="366" width="9" height="9"/>
	</g>
	<g>
		<rect id="p_19_" x="-277" y="375" width="9" height="9"/>
	</g>
	<g>
		<rect id="p_20_" x="-277" y="384" width="9" height="9"/>
	</g>
	<g>
		<rect id="p_21_" x="-277" y="393" width="9" height="9"/>
	</g>
	<g>
		<rect id="p_22_" x="-277" y="402" width="9" height="9"/>
	</g>
	<g>
		<rect id="p_23_" x="-268" y="150" width="9" height="9"/>
	</g>
	<g>
		<rect id="p_24_" x="-268" y="204" width="9" height="9"/>
	</g>
	<g>
		<rect id="p_25_" x="-268" y="240" width="9" height="9"/>
	</g>
	<g>
		<rect id="p_26_" x="-268" y="258" width="9" height="9"/>
	</g>
	<g>
		<rect id="p_27_" x="-268" y="294" width="9" height="9"/>
	</g>
	<g>
		<rect id="p_28_" x="-268" y="312" width="9" height="9"/>
	</g>
	<g>
		<rect id="p_29_" x="-268" y="321" width="9" height="9"/>
	</g>
	<g>
		<rect id="p_30_" x="-268" y="348" width="9" height="9"/>
	</g>
	<g>
		<rect id="p_31_" x="-268" y="402" width="9" height="9"/>
	</g>
	<g>
		<rect id="p_32_" x="-259" y="150" width="9" height="9"/>
	</g>
	<g>
		<rect id="p_33_" x="-259" y="168" width="9" height="9"/>
	</g>
	<g>
		<rect id="p_34_" x="-259" y="177" width="9" height="9"/>
	</g>
	<g>
		<rect id="p_35_" x="-259" y="186" width="9" height="9"/>
	</g>
	<g>
		<rect id="p_36_" x="-259" y="204" width="9" height="9"/>
	</g>
	<g>
		<rect id="p_37_" x="-259" y="222" width="9" height="9"/>
	</g>
	<g>
		<rect id="p_38_" x="-259" y="231" width="9" height="9"/>
	</g>
	<g>
		<rect id="p_39_" x="-259" y="240" width="9" height="9"/>
	</g>
	<g>
		<rect id="p_40_" x="-259" y="249" width="9" height="9"/>
	</g>
	<g>
		<rect id="p_41_" x="-259" y="258" width="9" height="9"/>
	</g>
	<g>
		<rect id="p_42_" x="-259" y="267" width="9" height="9"/>
	</g>
	<g>
		<rect id="p_43_" x="-259" y="285" width="9" height="9"/>
	</g>
	<g>
		<rect id="p_44_" x="-259" y="294" width="9" height="9"/>
	</g>
	<g>
		<rect id="p_45_" x="-259" y="312" width="9" height="9"/>
	</g>
	<g>
		<rect id="p_46_" x="-259" y="348" width="9" height="9"/>
	</g>
	<g>
		<rect id="p_47_" x="-259" y="366" width="9" height="9"/>
	</g>
	<g>
		<rect id="p_48_" x="-259" y="375" width="9" height="9"/>
	</g>
	<g>
		<rect id="p_49_" x="-259" y="384" width="9" height="9"/>
	</g>
	<g>
		<rect id="p_50_" x="-259" y="402" width="9" height="9"/>
	</g>
	<g>
		<rect id="p_51_" x="-250" y="150" width="9" height="9"/>
	</g>
	<g>
		<rect id="p_52_" x="-250" y="168" width="9" height="9"/>
	</g>
	<g>
		<rect id="p_53_" x="-250" y="177" width="9" height="9"/>
	</g>
	<g>
		<rect id="p_54_" x="-250" y="186" width="9" height="9"/>
	</g>
	<g>
		<rect id="p_55_" x="-250" y="204" width="9" height="9"/>
	</g>
	<g>
		<rect id="p_56_" x="-250" y="222" width="9" height="9"/>
	</g>
	<g>
		<rect id="p_57_" x="-250" y="249" width="9" height="9"/>
	</g>
	<g>
		<rect id="p_58_" x="-250" y="294" width="9" height="9"/>
	</g>
	<g>
		<rect id="p_59_" x="-250" y="303" width="9" height="9"/>
	</g>
	<g>
		<rect id="p_60_" x="-250" y="312" width="9" height="9"/>
	</g>
	<g>
		<rect id="p_61_" x="-250" y="330" width="9" height="9"/>
	</g>
	<g>
		<rect id="p_62_" x="-250" y="348" width="9" height="9"/>
	</g>
	<g>
		<rect id="p_63_" x="-250" y="366" width="9" height="9"/>
	</g>
	<g>
		<rect id="p_64_" x="-250" y="375" width="9" height="9"/>
	</g>
	<g>
		<rect id="p_65_" x="-250" y="384" width="9" height="9"/>
	</g>
	<g>
		<rect id="p_66_" x="-250" y="402" width="9" height="9"/>
	</g>
	<g>
		<rect id="p_67_" x="-241" y="150" width="9" height="9"/>
	</g>
	<g>
		<rect id="p_68_" x="-241" y="168" width="9" height="9"/>
	</g>
	<g>
		<rect id="p_69_" x="-241" y="177" width="9" height="9"/>
	</g>
	<g>
		<rect id="p_70_" x="-241" y="186" width="9" height="9"/>
	</g>
	<g>
		<rect id="p_71_" x="-241" y="204" width="9" height="9"/>
	</g>
	<g>
		<rect id="p_72_" x="-241" y="249" width="9" height="9"/>
	</g>
	<g>
		<rect id="p_73_" x="-241" y="258" width="9" height="9"/>
	</g>
	<g>
		<rect id="p_74_" x="-241" y="276" width="9" height="9"/>
	</g>
	<g>
		<rect id="p_75_" x="-241" y="321" width="9" height="9"/>
	</g>
	<g>
		<rect id="p_76_" x="-241" y="348" width="9" height="9"/>
	</g>
	<g>
		<rect id="p_77_" x="-241" y="366" width="9" height="9"/>
	</g>
	<g>
		<rect id="p_78_" x="-241" y="375" width="9" height="9"/>
	</g>
	<g>
		<rect id="p_79_" x="-241" y="384" width="9" height="9"/>
	</g>
	<g>
		<rect id="p_80_" x="-241" y="402" width="9" height="9"/>
	</g>
	<g>
		<rect id="p_81_" x="-232" y="150" width="9" height="9"/>
	</g>
	<g>
		<rect id="p_82_" x="-232" y="204" width="9" height="9"/>
	</g>
	<g>
		<rect id="p_83_" x="-232" y="222" width="9" height="9"/>
	</g>
	<g>
		<rect id="p_84_" x="-232" y="231" width="9" height="9"/>
	</g>
	<g>
		<rect id="p_85_" x="-232" y="249" width="9" height="9"/>
	</g>
	<g>
		<rect id="p_86_" x="-232" y="267" width="9" height="9"/>
	</g>
	<g>
		<rect id="p_87_" x="-232" y="285" width="9" height="9"/>
	</g>
	<g>
		<rect id="p_88_" x="-232" y="294" width="9" height="9"/>
	</g>
	<g>
		<rect id="p_89_" x="-232" y="303" width="9" height="9"/>
	</g>
	<g>
		<rect id="p_90_" x="-232" y="330" width="9" height="9"/>
	</g>
	<g>
		<rect id="p_91_" x="-232" y="348" width="9" height="9"/>
	</g>
	<g>
		<rect id="p_92_" x="-232" y="402" width="9" height="9"/>
	</g>
	<g>
		<rect id="p_93_" x="-223" y="150" width="9" height="9"/>
	</g>
	<g>
		<rect id="p_94_" x="-223" y="159" width="9" height="9"/>
	</g>
	<g>
		<rect id="p_95_" x="-223" y="168" width="9" height="9"/>
	</g>
	<g>
		<rect id="p_96_" x="-223" y="177" width="9" height="9"/>
	</g>
	<g>
		<rect id="p_97_" x="-223" y="186" width="9" height="9"/>
	</g>
	<g>
		<rect id="p_98_" x="-223" y="195" width="9" height="9"/>
	</g>
	<g>
		<rect id="p_99_" x="-223" y="204" width="9" height="9"/>
	</g>
	<g>
		<rect id="p_100_" x="-223" y="222" width="9" height="9"/>
	</g>
	<g>
		<rect id="p_101_" x="-223" y="240" width="9" height="9"/>
	</g>
	<g>
		<rect id="p_102_" x="-223" y="258" width="9" height="9"/>
	</g>
	<g>
		<rect id="p_103_" x="-223" y="276" width="9" height="9"/>
	</g>
	<g>
		<rect id="p_104_" x="-223" y="294" width="9" height="9"/>
	</g>
	<g>
		<rect id="p_105_" x="-223" y="312" width="9" height="9"/>
	</g>
	<g>
		<rect id="p_106_" x="-223" y="330" width="9" height="9"/>
	</g>
	<g>
		<rect id="p_107_" x="-223" y="348" width="9" height="9"/>
	</g>
	<g>
		<rect id="p_108_" x="-223" y="357" width="9" height="9"/>
	</g>
	<g>
		<rect id="p_109_" x="-223" y="366" width="9" height="9"/>
	</g>
	<g>
		<rect id="p_110_" x="-223" y="375" width="9" height="9"/>
	</g>
	<g>
		<rect id="p_111_" x="-223" y="384" width="9" height="9"/>
	</g>
	<g>
		<rect id="p_112_" x="-223" y="393" width="9" height="9"/>
	</g>
	<g>
		<rect id="p_113_" x="-223" y="402" width="9" height="9"/>
	</g>
	<g>
		<rect id="p_114_" x="-214" y="222" width="9" height="9"/>
	</g>
	<g>
		<rect id="p_115_" x="-214" y="240" width="9" height="9"/>
	</g>
	<g>
		<rect id="p_116_" x="-214" y="258" width="9" height="9"/>
	</g>
	<g>
		<rect id="p_117_" x="-214" y="276" width="9" height="9"/>
	</g>
	<g>
		<rect id="p_118_" x="-214" y="285" width="9" height="9"/>
	</g>
	<g>
		<rect id="p_119_" x="-214" y="303" width="9" height="9"/>
	</g>
	<g>
		<rect id="p_120_" x="-214" y="321" width="9" height="9"/>
	</g>
	<g>
		<rect id="p_121_" x="-214" y="330" width="9" height="9"/>
	</g>
	<g>
		<rect id="p_122_" x="-205" y="150" width="9" height="9"/>
	</g>
	<g>
		<rect id="p_123_" x="-205" y="159" width="9" height="9"/>
	</g>
	<g>
		<rect id="p_124_" x="-205" y="177" width="9" height="9"/>
	</g>
	<g>
		<rect id="p_125_" x="-205" y="204" width="9" height="9"/>
	</g>
	<g>
		<rect id="p_126_" x="-205" y="213" width="9" height="9"/>
	</g>
	<g>
		<rect id="p_127_" x="-205" y="267" width="9" height="9"/>
	</g>
	<g>
		<rect id="p_128_" x="-205" y="303" width="9" height="9"/>
	</g>
	<g>
		<rect id="p_129_" x="-205" y="321" width="9" height="9"/>
	</g>
	<g>
		<rect id="p_130_" x="-205" y="339" width="9" height="9"/>
	</g>
	<g>
		<rect id="p_131_" x="-205" y="348" width="9" height="9"/>
	</g>
	<g>
		<rect id="p_132_" x="-205" y="357" width="9" height="9"/>
	</g>
	<g>
		<rect id="p_133_" x="-205" y="375" width="9" height="9"/>
	</g>
	<g>
		<rect id="p_134_" x="-205" y="384" width="9" height="9"/>
	</g>
	<g>
		<rect id="p_135_" x="-205" y="402" width="9" height="9"/>
	</g>
	<g>
		<rect id="p_136_" x="-196" y="159" width="9" height="9"/>
	</g>
	<g>
		<rect id="p_137_" x="-196" y="177" width="9" height="9"/>
	</g>
	<g>
		<rect id="p_138_" x="-196" y="186" width="9" height="9"/>
	</g>
	<g>
		<rect id="p_139_" x="-196" y="213" width="9" height="9"/>
	</g>
	<g>
		<rect id="p_140_" x="-196" y="222" width="9" height="9"/>
	</g>
	<g>
		<rect id="p_141_" x="-196" y="249" width="9" height="9"/>
	</g>
	<g>
		<rect id="p_142_" x="-196" y="294" width="9" height="9"/>
	</g>
	<g>
		<rect id="p_143_" x="-196" y="303" width="9" height="9"/>
	</g>
	<g>
		<rect id="p_144_" x="-196" y="321" width="9" height="9"/>
	</g>
	<g>
		<rect id="p_145_" x="-196" y="330" width="9" height="9"/>
	</g>
	<g>
		<rect id="p_146_" x="-196" y="339" width="9" height="9"/>
	</g>
	<g>
		<rect id="p_147_" x="-196" y="366" width="9" height="9"/>
	</g>
	<g>
		<rect id="p_148_" x="-196" y="375" width="9" height="9"/>
	</g>
	<g>
		<rect id="p_149_" x="-196" y="393" width="9" height="9"/>
	</g>
	<g>
		<rect id="p_150_" x="-187" y="150" width="9" height="9"/>
	</g>
	<g>
		<rect id="p_151_" x="-187" y="159" width="9" height="9"/>
	</g>
	<g>
		<rect id="p_152_" x="-187" y="186" width="9" height="9"/>
	</g>
	<g>
		<rect id="p_153_" x="-187" y="195" width="9" height="9"/>
	</g>
	<g>
		<rect id="p_154_" x="-187" y="204" width="9" height="9"/>
	</g>
	<g>
		<rect id="p_155_" x="-187" y="213" width="9" height="9"/>
	</g>
	<g>
		<rect id="p_156_" x="-187" y="231" width="9" height="9"/>
	</g>
	<g>
		<rect id="p_157_" x="-187" y="240" width="9" height="9"/>
	</g>
	<g>
		<rect id="p_158_" x="-187" y="249" width="9" height="9"/>
	</g>
	<g>
		<rect id="p_159_" x="-187" y="267" width="9" height="9"/>
	</g>
	<g>
		<rect id="p_160_" x="-187" y="276" width="9" height="9"/>
	</g>
	<g>
		<rect id="p_161_" x="-187" y="285" width="9" height="9"/>
	</g>
	<g>
		<rect id="p_162_" x="-187" y="294" width="9" height="9"/>
	</g>
	<g>
		<rect id="p_163_" x="-187" y="312" width="9" height="9"/>
	</g>
	<g>
		<rect id="p_164_" x="-187" y="321" width="9" height="9"/>
	</g>
	<g>
		<rect id="p_165_" x="-187" y="330" width="9" height="9"/>
	</g>
	<g>
		<rect id="p_166_" x="-187" y="357" width="9" height="9"/>
	</g>
	<g>
		<rect id="p_167_" x="-187" y="366" width="9" height="9"/>
	</g>
	<g>
		<rect id="p_168_" x="-187" y="375" width="9" height="9"/>
	</g>
	<g>
		<rect id="p_169_" x="-187" y="402" width="9" height="9"/>
	</g>
	<g>
		<rect id="p_170_" x="-178" y="150" width="9" height="9"/>
	</g>
	<g>
		<rect id="p_171_" x="-178" y="159" width="9" height="9"/>
	</g>
	<g>
		<rect id="p_172_" x="-178" y="168" width="9" height="9"/>
	</g>
	<g>
		<rect id="p_173_" x="-178" y="186" width="9" height="9"/>
	</g>
	<g>
		<rect id="p_174_" x="-178" y="195" width="9" height="9"/>
	</g>
	<g>
		<rect id="p_175_" x="-178" y="222" width="9" height="9"/>
	</g>
	<g>
		<rect id="p_176_" x="-178" y="249" width="9" height="9"/>
	</g>
	<g>
		<rect id="p_177_" x="-178" y="285" width="9" height="9"/>
	</g>
	<g>
		<rect id="p_178_" x="-178" y="312" width="9" height="9"/>
	</g>
	<g>
		<rect id="p_179_" x="-178" y="321" width="9" height="9"/>
	</g>
	<g>
		<rect id="p_180_" x="-178" y="366" width="9" height="9"/>
	</g>
	<g>
		<rect id="p_181_" x="-178" y="375" width="9" height="9"/>
	</g>
	<g>
		<rect id="p_182_" x="-178" y="402" width="9" height="9"/>
	</g>
	<g>
		<rect id="p_183_" x="-169" y="150" width="9" height="9"/>
	</g>
	<g>
		<rect id="p_184_" x="-169" y="177" width="9" height="9"/>
	</g>
	<g>
		<rect id="p_185_" x="-169" y="195" width="9" height="9"/>
	</g>
	<g>
		<rect id="p_186_" x="-169" y="204" width="9" height="9"/>
	</g>
	<g>
		<rect id="p_187_" x="-169" y="258" width="9" height="9"/>
	</g>
	<g>
		<rect id="p_188_" x="-169" y="285" width="9" height="9"/>
	</g>
	<g>
		<rect id="p_189_" x="-169" y="294" width="9" height="9"/>
	</g>
	<g>
		<rect id="p_190_" x="-169" y="303" width="9" height="9"/>
	</g>
	<g>
		<rect id="p_191_" x="-169" y="312" width="9" height="9"/>
	</g>
	<g>
		<rect id="p_192_" x="-169" y="339" width="9" height="9"/>
	</g>
	<g>
		<rect id="p_193_" x="-169" y="366" width="9" height="9"/>
	</g>
	<g>
		<rect id="p_194_" x="-169" y="375" width="9" height="9"/>
	</g>
	<g>
		<rect id="p_195_" x="-169" y="384" width="9" height="9"/>
	</g>
	<g>
		<rect id="p_196_" x="-169" y="402" width="9" height="9"/>
	</g>
	<g>
		<rect id="p_197_" x="-160" y="168" width="9" height="9"/>
	</g>
	<g>
		<rect id="p_198_" x="-160" y="186" width="9" height="9"/>
	</g>
	<g>
		<rect id="p_199_" x="-160" y="213" width="9" height="9"/>
	</g>
	<g>
		<rect id="p_200_" x="-160" y="222" width="9" height="9"/>
	</g>
	<g>
		<rect id="p_201_" x="-160" y="249" width="9" height="9"/>
	</g>
	<g>
		<rect id="p_202_" x="-160" y="267" width="9" height="9"/>
	</g>
	<g>
		<rect id="p_203_" x="-160" y="285" width="9" height="9"/>
	</g>
	<g>
		<rect id="p_204_" x="-160" y="303" width="9" height="9"/>
	</g>
	<g>
		<rect id="p_205_" x="-160" y="330" width="9" height="9"/>
	</g>
	<g>
		<rect id="p_206_" x="-160" y="339" width="9" height="9"/>
	</g>
	<g>
		<rect id="p_207_" x="-160" y="348" width="9" height="9"/>
	</g>
	<g>
		<rect id="p_208_" x="-160" y="384" width="9" height="9"/>
	</g>
	<g>
		<rect id="p_209_" x="-160" y="402" width="9" height="9"/>
	</g>
	<g>
		<rect id="p_210_" x="-151" y="159" width="9" height="9"/>
	</g>
	<g>
		<rect id="p_211_" x="-151" y="168" width="9" height="9"/>
	</g>
	<g>
		<rect id="p_212_" x="-151" y="195" width="9" height="9"/>
	</g>
	<g>
		<rect id="p_213_" x="-151" y="204" width="9" height="9"/>
	</g>
	<g>
		<rect id="p_214_" x="-151" y="213" width="9" height="9"/>
	</g>
	<g>
		<rect id="p_215_" x="-151" y="222" width="9" height="9"/>
	</g>
	<g>
		<rect id="p_216_" x="-151" y="240" width="9" height="9"/>
	</g>
	<g>
		<rect id="p_217_" x="-151" y="249" width="9" height="9"/>
	</g>
	<g>
		<rect id="p_218_" x="-151" y="276" width="9" height="9"/>
	</g>
	<g>
		<rect id="p_219_" x="-151" y="339" width="9" height="9"/>
	</g>
	<g>
		<rect id="p_220_" x="-151" y="366" width="9" height="9"/>
	</g>
	<g>
		<rect id="p_221_" x="-151" y="375" width="9" height="9"/>
	</g>
	<g>
		<rect id="p_222_" x="-151" y="393" width="9" height="9"/>
	</g>
	<g>
		<rect id="p_223_" x="-151" y="402" width="9" height="9"/>
	</g>
	<g>
		<rect id="p_224_" x="-142" y="150" width="9" height="9"/>
	</g>
	<g>
		<rect id="p_225_" x="-142" y="159" width="9" height="9"/>
	</g>
	<g>
		<rect id="p_226_" x="-142" y="168" width="9" height="9"/>
	</g>
	<g>
		<rect id="p_227_" x="-142" y="231" width="9" height="9"/>
	</g>
	<g>
		<rect id="p_228_" x="-142" y="240" width="9" height="9"/>
	</g>
	<g>
		<rect id="p_229_" x="-142" y="249" width="9" height="9"/>
	</g>
	<g>
		<rect id="p_230_" x="-142" y="285" width="9" height="9"/>
	</g>
	<g>
		<rect id="p_231_" x="-142" y="321" width="9" height="9"/>
	</g>
	<g>
		<rect id="p_232_" x="-142" y="330" width="9" height="9"/>
	</g>
	<g>
		<rect id="p_233_" x="-142" y="339" width="9" height="9"/>
	</g>
	<g>
		<rect id="p_234_" x="-142" y="366" width="9" height="9"/>
	</g>
	<g>
		<rect id="p_235_" x="-142" y="384" width="9" height="9"/>
	</g>
	<g>
		<rect id="p_236_" x="-142" y="402" width="9" height="9"/>
	</g>
	<g>
		<rect id="p_237_" x="-133" y="150" width="9" height="9"/>
	</g>
	<g>
		<rect id="p_238_" x="-133" y="177" width="9" height="9"/>
	</g>
	<g>
		<rect id="p_239_" x="-133" y="204" width="9" height="9"/>
	</g>
	<g>
		<rect id="p_240_" x="-133" y="222" width="9" height="9"/>
	</g>
	<g>
		<rect id="p_241_" x="-133" y="231" width="9" height="9"/>
	</g>
	<g>
		<rect id="p_242_" x="-133" y="258" width="9" height="9"/>
	</g>
	<g>
		<rect id="p_243_" x="-133" y="321" width="9" height="9"/>
	</g>
	<g>
		<rect id="p_244_" x="-133" y="348" width="9" height="9"/>
	</g>
	<g>
		<rect id="p_245_" x="-133" y="357" width="9" height="9"/>
	</g>
	<g>
		<rect id="p_246_" x="-133" y="375" width="9" height="9"/>
	</g>
	<g>
		<rect id="p_247_" x="-133" y="384" width="9" height="9"/>
	</g>
	<g>
		<rect id="p_248_" x="-133" y="393" width="9" height="9"/>
	</g>
	<g>
		<rect id="p_249_" x="-124" y="150" width="9" height="9"/>
	</g>
	<g>
		<rect id="p_250_" x="-124" y="177" width="9" height="9"/>
	</g>
	<g>
		<rect id="p_251_" x="-124" y="195" width="9" height="9"/>
	</g>
	<g>
		<rect id="p_252_" x="-124" y="213" width="9" height="9"/>
	</g>
	<g>
		<rect id="p_253_" x="-124" y="222" width="9" height="9"/>
	</g>
	<g>
		<rect id="p_254_" x="-124" y="231" width="9" height="9"/>
	</g>
	<g>
		<rect id="p_255_" x="-124" y="240" width="9" height="9"/>
	</g>
	<g>
		<rect id="p_256_" x="-124" y="276" width="9" height="9"/>
	</g>
	<g>
		<rect id="p_257_" x="-124" y="294" width="9" height="9"/>
	</g>
	<g>
		<rect id="p_258_" x="-124" y="321" width="9" height="9"/>
	</g>
	<g>
		<rect id="p_259_" x="-124" y="366" width="9" height="9"/>
	</g>
	<g>
		<rect id="p_260_" x="-124" y="384" width="9" height="9"/>
	</g>
	<g>
		<rect id="p_261_" x="-124" y="402" width="9" height="9"/>
	</g>
	<g>
		<rect id="p_262_" x="-115" y="150" width="9" height="9"/>
	</g>
	<g>
		<rect id="p_263_" x="-115" y="159" width="9" height="9"/>
	</g>
	<g>
		<rect id="p_264_" x="-115" y="168" width="9" height="9"/>
	</g>
	<g>
		<rect id="p_265_" x="-115" y="186" width="9" height="9"/>
	</g>
	<g>
		<rect id="p_266_" x="-115" y="204" width="9" height="9"/>
	</g>
	<g>
		<rect id="p_267_" x="-115" y="222" width="9" height="9"/>
	</g>
	<g>
		<rect id="p_268_" x="-115" y="231" width="9" height="9"/>
	</g>
	<g>
		<rect id="p_269_" x="-115" y="267" width="9" height="9"/>
	</g>
	<g>
		<rect id="p_270_" x="-115" y="276" width="9" height="9"/>
	</g>
	<g>
		<rect id="p_271_" x="-115" y="294" width="9" height="9"/>
	</g>
	<g>
		<rect id="p_272_" x="-115" y="303" width="9" height="9"/>
	</g>
	<g>
		<rect id="p_273_" x="-115" y="330" width="9" height="9"/>
	</g>
	<g>
		<rect id="p_274_" x="-115" y="348" width="9" height="9"/>
	</g>
	<g>
		<rect id="p_275_" x="-115" y="357" width="9" height="9"/>
	</g>
	<g>
		<rect id="p_276_" x="-115" y="366" width="9" height="9"/>
	</g>
	<g>
		<rect id="p_277_" x="-115" y="384" width="9" height="9"/>
	</g>
	<g>
		<rect id="p_278_" x="-106" y="150" width="9" height="9"/>
	</g>
	<g>
		<rect id="p_279_" x="-106" y="168" width="9" height="9"/>
	</g>
	<g>
		<rect id="p_280_" x="-106" y="177" width="9" height="9"/>
	</g>
	<g>
		<rect id="p_281_" x="-106" y="186" width="9" height="9"/>
	</g>
	<g>
		<rect id="p_282_" x="-106" y="195" width="9" height="9"/>
	</g>
	<g>
		<rect id="p_283_" x="-106" y="213" width="9" height="9"/>
	</g>
	<g>
		<rect id="p_284_" x="-106" y="231" width="9" height="9"/>
	</g>
	<g>
		<rect id="p_285_" x="-106" y="267" width="9" height="9"/>
	</g>
	<g>
		<rect id="p_286_" x="-106" y="276" width="9" height="9"/>
	</g>
	<g>
		<rect id="p_287_" x="-106" y="285" width="9" height="9"/>
	</g>
	<g>
		<rect id="p_288_" x="-106" y="294" width="9" height="9"/>
	</g>
	<g>
		<rect id="p_289_" x="-106" y="330" width="9" height="9"/>
	</g>
	<g>
		<rect id="p_290_" x="-106" y="339" width="9" height="9"/>
	</g>
	<g>
		<rect id="p_291_" x="-106" y="348" width="9" height="9"/>
	</g>
	<g>
		<rect id="p_292_" x="-106" y="375" width="9" height="9"/>
	</g>
	<g>
		<rect id="p_293_" x="-106" y="384" width="9" height="9"/>
	</g>
	<g>
		<rect id="p_294_" x="-106" y="402" width="9" height="9"/>
	</g>
	<g>
		<rect id="p_295_" x="-97" y="168" width="9" height="9"/>
	</g>
	<g>
		<rect id="p_296_" x="-97" y="195" width="9" height="9"/>
	</g>
	<g>
		<rect id="p_297_" x="-97" y="204" width="9" height="9"/>
	</g>
	<g>
		<rect id="p_298_" x="-97" y="231" width="9" height="9"/>
	</g>
	<g>
		<rect id="p_299_" x="-97" y="285" width="9" height="9"/>
	</g>
	<g>
		<rect id="p_300_" x="-97" y="294" width="9" height="9"/>
	</g>
	<g>
		<rect id="p_301_" x="-97" y="330" width="9" height="9"/>
	</g>
	<g>
		<rect id="p_302_" x="-97" y="339" width="9" height="9"/>
	</g>
	<g>
		<rect id="p_303_" x="-97" y="348" width="9" height="9"/>
	</g>
	<g>
		<rect id="p_304_" x="-97" y="357" width="9" height="9"/>
	</g>
	<g>
		<rect id="p_305_" x="-97" y="366" width="9" height="9"/>
	</g>
	<g>
		<rect id="p_306_" x="-97" y="375" width="9" height="9"/>
	</g>
	<g>
		<rect id="p_307_" x="-97" y="393" width="9" height="9"/>
	</g>
	<g>
		<rect id="p_308_" x="-97" y="402" width="9" height="9"/>
	</g>
	<g>
		<rect id="p_309_" x="-88" y="240" width="9" height="9"/>
	</g>
	<g>
		<rect id="p_310_" x="-88" y="249" width="9" height="9"/>
	</g>
	<g>
		<rect id="p_311_" x="-88" y="276" width="9" height="9"/>
	</g>
	<g>
		<rect id="p_312_" x="-88" y="294" width="9" height="9"/>
	</g>
	<g>
		<rect id="p_313_" x="-88" y="312" width="9" height="9"/>
	</g>
	<g>
		<rect id="p_314_" x="-88" y="321" width="9" height="9"/>
	</g>
	<g>
		<rect id="p_315_" x="-88" y="330" width="9" height="9"/>
	</g>
	<g>
		<rect id="p_316_" x="-88" y="366" width="9" height="9"/>
	</g>
	<g>
		<rect id="p_317_" x="-88" y="375" width="9" height="9"/>
	</g>
	<g>
		<rect id="p_318_" x="-88" y="393" width="9" height="9"/>
	</g>
	<g>
		<rect id="p_319_" x="-79" y="150" width="9" height="9"/>
	</g>
	<g>
		<rect id="p_320_" x="-79" y="159" width="9" height="9"/>
	</g>
	<g>
		<rect id="p_321_" x="-79" y="168" width="9" height="9"/>
	</g>
	<g>
		<rect id="p_322_" x="-79" y="177" width="9" height="9"/>
	</g>
	<g>
		<rect id="p_323_" x="-79" y="186" width="9" height="9"/>
	</g>
	<g>
		<rect id="p_324_" x="-79" y="195" width="9" height="9"/>
	</g>
	<g>
		<rect id="p_325_" x="-79" y="204" width="9" height="9"/>
	</g>
	<g>
		<rect id="p_326_" x="-79" y="222" width="9" height="9"/>
	</g>
	<g>
		<rect id="p_327_" x="-79" y="231" width="9" height="9"/>
	</g>
	<g>
		<rect id="p_328_" x="-79" y="267" width="9" height="9"/>
	</g>
	<g>
		<rect id="p_329_" x="-79" y="276" width="9" height="9"/>
	</g>
	<g>
		<rect id="p_330_" x="-79" y="321" width="9" height="9"/>
	</g>
	<g>
		<rect id="p_331_" x="-79" y="330" width="9" height="9"/>
	</g>
	<g>
		<rect id="p_332_" x="-79" y="348" width="9" height="9"/>
	</g>
	<g>
		<rect id="p_333_" x="-79" y="366" width="9" height="9"/>
	</g>
	<g>
		<rect id="p_334_" x="-79" y="393" width="9" height="9"/>
	</g>
	<g>
		<rect id="p_335_" x="-70" y="150" width="9" height="9"/>
	</g>
	<g>
		<rect id="p_336_" x="-70" y="204" width="9" height="9"/>
	</g>
	<g>
		<rect id="p_337_" x="-70" y="231" width="9" height="9"/>
	</g>
	<g>
		<rect id="p_338_" x="-70" y="240" width="9" height="9"/>
	</g>
	<g>
		<rect id="p_339_" x="-70" y="249" width="9" height="9"/>
	</g>
	<g>
		<rect id="p_340_" x="-70" y="267" width="9" height="9"/>
	</g>
	<g>
		<rect id="p_341_" x="-70" y="276" width="9" height="9"/>
	</g>
	<g>
		<rect id="p_342_" x="-70" y="285" width="9" height="9"/>
	</g>
	<g>
		<rect id="p_343_" x="-70" y="303" width="9" height="9"/>
	</g>
	<g>
		<rect id="p_344_" x="-70" y="312" width="9" height="9"/>
	</g>
	<g>
		<rect id="p_345_" x="-70" y="330" width="9" height="9"/>
	</g>
	<g>
		<rect id="p_346_" x="-70" y="366" width="9" height="9"/>
	</g>
	<g>
		<rect id="p_347_" x="-70" y="384" width="9" height="9"/>
	</g>
	<g>
		<rect id="p_348_" x="-70" y="393" width="9" height="9"/>
	</g>
	<g>
		<rect id="p_349_" x="-61" y="150" width="9" height="9"/>
	</g>
	<g>
		<rect id="p_350_" x="-61" y="168" width="9" height="9"/>
	</g>
	<g>
		<rect id="p_351_" x="-61" y="177" width="9" height="9"/>
	</g>
	<g>
		<rect id="p_352_" x="-61" y="186" width="9" height="9"/>
	</g>
	<g>
		<rect id="p_353_" x="-61" y="204" width="9" height="9"/>
	</g>
	<g>
		<rect id="p_354_" x="-61" y="231" width="9" height="9"/>
	</g>
	<g>
		<rect id="p_355_" x="-61" y="240" width="9" height="9"/>
	</g>
	<g>
		<rect id="p_356_" x="-61" y="249" width="9" height="9"/>
	</g>
	<g>
		<rect id="p_357_" x="-61" y="276" width="9" height="9"/>
	</g>
	<g>
		<rect id="p_358_" x="-61" y="285" width="9" height="9"/>
	</g>
	<g>
		<rect id="p_359_" x="-61" y="294" width="9" height="9"/>
	</g>
	<g>
		<rect id="p_360_" x="-61" y="330" width="9" height="9"/>
	</g>
	<g>
		<rect id="p_361_" x="-61" y="339" width="9" height="9"/>
	</g>
	<g>
		<rect id="p_362_" x="-61" y="348" width="9" height="9"/>
	</g>
	<g>
		<rect id="p_363_" x="-61" y="357" width="9" height="9"/>
	</g>
	<g>
		<rect id="p_364_" x="-61" y="366" width="9" height="9"/>
	</g>
	<g>
		<rect id="p_365_" x="-61" y="375" width="9" height="9"/>
	</g>
	<g>
		<rect id="p_366_" x="-52" y="150" width="9" height="9"/>
	</g>
	<g>
		<rect id="p_367_" x="-52" y="168" width="9" height="9"/>
	</g>
	<g>
		<rect id="p_368_" x="-52" y="177" width="9" height="9"/>
	</g>
	<g>
		<rect id="p_369_" x="-52" y="186" width="9" height="9"/>
	</g>
	<g>
		<rect id="p_370_" x="-52" y="204" width="9" height="9"/>
	</g>
	<g>
		<rect id="p_371_" x="-52" y="222" width="9" height="9"/>
	</g>
	<g>
		<rect id="p_372_" x="-52" y="258" width="9" height="9"/>
	</g>
	<g>
		<rect id="p_373_" x="-52" y="294" width="9" height="9"/>
	</g>
	<g>
		<rect id="p_374_" x="-52" y="303" width="9" height="9"/>
	</g>
	<g>
		<rect id="p_375_" x="-52" y="330" width="9" height="9"/>
	</g>
	<g>
		<rect id="p_376_" x="-52" y="339" width="9" height="9"/>
	</g>
	<g>
		<rect id="p_377_" x="-52" y="348" width="9" height="9"/>
	</g>
	<g>
		<rect id="p_378_" x="-52" y="357" width="9" height="9"/>
	</g>
	<g>
		<rect id="p_379_" x="-52" y="375" width="9" height="9"/>
	</g>
	<g>
		<rect id="p_380_" x="-52" y="393" width="9" height="9"/>
	</g>
	<g>
		<rect id="p_381_" x="-52" y="402" width="9" height="9"/>
	</g>
	<g>
		<rect id="p_382_" x="-43" y="150" width="9" height="9"/>
	</g>
	<g>
		<rect id="p_383_" x="-43" y="168" width="9" height="9"/>
	</g>
	<g>
		<rect id="p_384_" x="-43" y="177" width="9" height="9"/>
	</g>
	<g>
		<rect id="p_385_" x="-43" y="186" width="9" height="9"/>
	</g>
	<g>
		<rect id="p_386_" x="-43" y="204" width="9" height="9"/>
	</g>
	<g>
		<rect id="p_387_" x="-43" y="240" width="9" height="9"/>
	</g>
	<g>
		<rect id="p_388_" x="-43" y="258" width="9" height="9"/>
	</g>
	<g>
		<rect id="p_389_" x="-43" y="267" width="9" height="9"/>
	</g>
	<g>
		<rect id="p_390_" x="-43" y="276" width="9" height="9"/>
	</g>
	<g>
		<rect id="p_391_" x="-43" y="303" width="9" height="9"/>
	</g>
	<g>
		<rect id="p_392_" x="-43" y="312" width="9" height="9"/>
	</g>
	<g>
		<rect id="p_393_" x="-43" y="321" width="9" height="9"/>
	</g>
	<g>
		<rect id="p_394_" x="-43" y="330" width="9" height="9"/>
	</g>
	<g>
		<rect id="p_395_" x="-43" y="339" width="9" height="9"/>
	</g>
	<g>
		<rect id="p_396_" x="-43" y="366" width="9" height="9"/>
	</g>
	<g>
		<rect id="p_397_" x="-43" y="384" width="9" height="9"/>
	</g>
	<g>
		<rect id="p_398_" x="-34" y="150" width="9" height="9"/>
	</g>
	<g>
		<rect id="p_399_" x="-34" y="204" width="9" height="9"/>
	</g>
	<g>
		<rect id="p_400_" x="-34" y="222" width="9" height="9"/>
	</g>
	<g>
		<rect id="p_401_" x="-34" y="240" width="9" height="9"/>
	</g>
	<g>
		<rect id="p_402_" x="-34" y="267" width="9" height="9"/>
	</g>
	<g>
		<rect id="p_403_" x="-34" y="276" width="9" height="9"/>
	</g>
	<g>
		<rect id="p_404_" x="-34" y="285" width="9" height="9"/>
	</g>
	<g>
		<rect id="p_405_" x="-34" y="294" width="9" height="9"/>
	</g>
	<g>
		<rect id="p_406_" x="-34" y="303" width="9" height="9"/>
	</g>
	<g>
		<rect id="p_407_" x="-34" y="339" width="9" height="9"/>
	</g>
	<g>
		<rect id="p_408_" x="-34" y="348" width="9" height="9"/>
	</g>
	<g>
		<rect id="p_409_" x="-34" y="357" width="9" height="9"/>
	</g>
	<g>
		<rect id="p_410_" x="-34" y="375" width="9" height="9"/>
	</g>
	<g>
		<rect id="p_411_" x="-34" y="393" width="9" height="9"/>
	</g>
	<g>
		<rect id="p_412_" x="-34" y="402" width="9" height="9"/>
	</g>
	<g>
		<rect id="p_413_" x="-25" y="150" width="9" height="9"/>
	</g>
	<g>
		<rect id="p_414_" x="-25" y="159" width="9" height="9"/>
	</g>
	<g>
		<rect id="p_415_" x="-25" y="168" width="9" height="9"/>
	</g>
	<g>
		<rect id="p_416_" x="-25" y="177" width="9" height="9"/>
	</g>
	<g>
		<rect id="p_417_" x="-25" y="186" width="9" height="9"/>
	</g>
	<g>
		<rect id="p_418_" x="-25" y="195" width="9" height="9"/>
	</g>
	<g>
		<rect id="p_419_" x="-25" y="204" width="9" height="9"/>
	</g>
	<g>
		<rect id="p_420_" x="-25" y="222" width="9" height="9"/>
	</g>
	<g>
		<rect id="p_421_" x="-25" y="231" width="9" height="9"/>
	</g>
	<g>
		<rect id="p_422_" x="-25" y="249" width="9" height="9"/>
	</g>
	<g>
		<rect id="p_423_" x="-25" y="267" width="9" height="9"/>
	</g>
	<g>
		<rect id="p_424_" x="-25" y="276" width="9" height="9"/>
	</g>
	<g>
		<rect id="p_425_" x="-25" y="339" width="9" height="9"/>
	</g>
	<g>
		<rect id="p_426_" x="-25" y="357" width="9" height="9"/>
	</g>
	<g>
		<rect id="p_427_" x="-25" y="366" width="9" height="9"/>
	</g>
	<g>
		<rect id="p_428_" x="-25" y="384" width="9" height="9"/>
	</g>
</g>
</svg>
