<?xml version="1.0" encoding="utf-8"?>
<!-- Generator: Adobe Illustrator 22.0.1, SVG Export Plug-In . SVG Version: 6.00 Build 0)  -->
<svg version="1.1" id="Capa_1" xmlns="http://www.w3.org/2000/svg" xmlns:xlink="http://www.w3.org/1999/xlink" x="0px" y="0px"
	 viewBox="0 0 512 512" style="enable-background:new 0 0 512 512;" xml:space="preserve">
<style type="text/css">
	.st0{fill:#404040;}
</style>
<path class="st0" d="M247.3,482.7H113.8c-36.3,0-65.7-29.6-65.7-65.7V95.1c0-36.3,29.6-65.7,65.7-65.7h135.7
	c8.1,0,14.7-6.5,14.7-14.7S257.7,0,249.5,0H113.8C61.3,0,18.7,42.7,18.7,95.1v321.8c0,52.5,42.7,95.1,95.1,95.1h133.5
	c8.1,0,14.7-6.5,14.7-14.7S255.4,482.7,247.3,482.7z"/>
<path class="st0" d="M489,245.7l-93.2-93.2c-5.8-5.8-15-5.8-20.8,0s-5.8,15,0,20.8l68.2,68.2H145.6c-8.1,0-14.7,6.5-14.7,14.7
	s6.5,14.7,14.7,14.7h297.6L375,339c-5.8,5.8-5.8,15,0,20.8c2.8,2.8,6.6,4.3,10.3,4.3c3.7,0,7.5-1.4,10.3-4.3l93.2-93.2
	C494.7,260.7,494.7,251.3,489,245.7z"/>
</svg>
