<?xml version="1.0" encoding="utf-8"?>
<!-- Generator: Adobe Illustrator 22.0.1, SVG Export Plug-In . SVG Version: 6.00 Build 0)  -->
<svg version="1.1" id="Capa_1" xmlns="http://www.w3.org/2000/svg" xmlns:xlink="http://www.w3.org/1999/xlink" x="0px" y="0px"
	 viewBox="0 0 512 512" style="enable-background:new 0 0 512 512;" xml:space="preserve">
<path d="M481.2,394.4v54.5c0,36.3-29.6,33.7-65.7,33.7H96.6c-36.3,0-65.7,2.4-65.7-33.7v-54.7c0-8.1-6.5-14.7-14.7-14.7
	S1.5,386,1.5,394.2v54.7c0,52.5,42.7,63.1,95.1,63.1h318.8c52.5,0,95.1-10.7,95.1-63.1v-54.5c0-8.1-6.5-14.7-14.7-14.7
	C487.7,379.7,481.2,386.3,481.2,394.4z"/>
<path d="M275.1,184.5h-38c-15.8,0-28.7-12.9-28.7-28.7s12.9-28.7,28.7-28.7h67.1c7.2,0,13.1-5.9,13.1-13.1s-5.9-13.1-13.1-13.1h-35
	V74.4c0-7.2-5.9-13.1-13.1-13.1c-7.2,0-13.1,5.9-13.1,13.1V101h-6c-30.2,0-54.8,24.6-54.8,54.8s24.6,54.8,54.8,54.8h38
	c15.8,0,28.7,12.9,28.7,28.7S290.8,268,275,268h-68.3c-7.2,0-13.1,5.9-13.1,13.1s5.9,13.1,13.1,13.1h36.2v27.2
	c0,7.2,5.9,13.1,13.1,13.1s13.1-5.9,13.1-13.1v-27.2h6.3c0.1,0,0.2,0,0.3,0c29.8-0.4,54-24.8,54-54.8
	C329.7,209,305.2,184.5,275.1,184.5z"/>
<path d="M411.4,396.1H100.6l-4.5-4.8C56.1,348,34,291,34,230.8C34,103.3,133.6-0.5,256-0.5s222,103.8,222,231.3
	c0,60.2-22.1,117.2-62.2,160.5L411.4,396.1z M113.9,366.1h284.2C430.3,329,448,281.2,448,230.8c0-111-86.1-201.3-192-201.3
	S64,119.8,64,230.8C64,281.2,81.7,329,113.9,366.1z"/>
</svg>
