<?xml version="1.0" encoding="utf-8"?>
<!-- Generator: Adobe Illustrator 22.0.1, SVG Export Plug-In . SVG Version: 6.00 Build 0)  -->
<svg version="1.1" id="Capa_1" xmlns="http://www.w3.org/2000/svg" xmlns:xlink="http://www.w3.org/1999/xlink" x="0px" y="0px"
	 viewBox="0 0 512 512" style="enable-background:new 0 0 512 512;" xml:space="preserve">
<style type="text/css">
	.st0{fill:none;}
</style>
<path d="M395.9,0h-57.2v24.9h60c36.9,0,67,30,67,67v328.2h0.1c0,36.9-30,67-67,67h-154H240H108.6c-37,0-67-30.2-67-67V91.9
	c0-37,30.2-67,67-67h60.1V0h-57.2C59,0,16.4,42.7,16.4,95.1V417c0,52.5,42.7,95.1,95.1,95.1h128.9h4.7h150.8
	c52.4,0,95.1-42.6,95.1-95.1V95.1C490.9,42.7,448.4,0,395.9,0z"/>
<path class="st0" d="M-528.9,364.3H-399v-74.2h-45.1C-487.6,290.1-523.3,322.7-528.9,364.3z"/>
<path d="M253.6,262.8c-39.9,0-72.4-32.5-72.4-72.4s32.5-72.4,72.4-72.4s72.4,32.5,72.4,72.4S293.5,262.8,253.6,262.8z M253.6,142
	c-26.7,0-48.4,21.7-48.4,48.4s21.7,48.4,48.4,48.4s48.4-21.7,48.4-48.4S280.3,142,253.6,142z"/>
<path d="M391.7,394H115.5l0.8-12.8c3.5-55.7,50-99.3,105.9-99.3H285c56,0,102.5,43.6,105.9,99.4L391.7,394z M142.1,370h223
	c-8.2-36.8-41.2-64.1-80.1-64.1h-62.8C183.4,305.9,150.4,333.2,142.1,370z"/>

</svg>
