<?xml version="1.0" encoding="utf-8"?>
<!-- Generator: Adobe Illustrator 22.0.1, SVG Export Plug-In . SVG Version: 6.00 Build 0)  -->
<svg version="1.1" id="Capa_1" xmlns="http://www.w3.org/2000/svg" xmlns:xlink="http://www.w3.org/1999/xlink" x="0px" y="0px"
	 viewBox="0 0 512 512" style="enable-background:new 0 0 512 512;" xml:space="preserve">
<style type="text/css">
	.st0{fill:none;}
</style>
<path class="st0" d="M-528.9,364.3H-399v-74.2h-45.1C-487.6,290.1-523.3,322.7-528.9,364.3z"/>
<path d="M424.6,511.6H87.4c-31.6,0-57.4-25.7-57.4-57.4V56.1C30,24.5,55.8-1.3,87.4-1.3h337.2c31.6,0,57.4,25.7,57.4,57.4v398.1
	C482,485.9,456.2,511.6,424.6,511.6z M87.4,23.7C69.5,23.7,55,38.3,55,56.1v398.1c0,17.8,14.5,32.4,32.4,32.4h337.2
	c17.8,0,32.4-14.5,32.4-32.4V56.1c0-17.8-14.5-32.4-32.4-32.4H87.4z"/>
<path d="M255.9,376.8c-5.1,0-10.1-2.1-13.8-5.7L144,273c-15.3-15.3-23.7-35.6-23.7-57c-0.1-21.5,8.3-41.8,23.6-57.1
	c15.2-15.2,35.5-23.6,57-23.6c20.6,0,40.1,7.7,55.2,21.8c15-14,34.4-21.6,55-21.6c21.6,0,41.8,8.4,57,23.6l0,0
	c15.3,15.3,23.6,35.5,23.6,57.1c0,21.5-8.4,41.8-23.7,57.1l-98.3,97.9C266.1,374.7,261.1,376.8,255.9,376.8z M252.1,353.4
	C252.1,353.4,252,353.4,252.1,353.4L252.1,353.4z M200.9,160.2c-14.8,0-28.8,5.8-39.3,16.3c-10.5,10.5-16.3,24.5-16.3,39.4
	c0,14.9,5.8,28.8,16.4,39.4l94.2,94.2l94.4-94.1c10.5-10.5,16.3-24.5,16.3-39.4c0-14.9-5.7-28.9-16.2-39.4l0,0
	c-10.5-10.5-24.5-16.3-39.4-16.3s-28.9,5.8-39.4,16.3l-15.6,15.6l-15.7-15.7C229.8,166,215.8,160.2,200.9,160.2z"/>
</svg>
