<?xml version="1.0" encoding="utf-8"?>
<!-- Generator: Adobe Illustrator 22.0.1, SVG Export Plug-In . SVG Version: 6.00 Build 0)  -->
<svg version="1.1" id="Capa_1" xmlns="http://www.w3.org/2000/svg" xmlns:xlink="http://www.w3.org/1999/xlink" x="0px" y="0px"
	 viewBox="0 0 512 512" style="enable-background:new 0 0 512 512;" xml:space="preserve">
<path d="M255.2,12.2c-75.6,0-137,61.4-137,136.6s61.3,137,137,137s137-61.4,137-137S330.8,12.2,255.2,12.2z M255.2,254.7
	c-58.3,0-105.9-47.7-105.9-105.9c0-58.3,47.7-105.9,105.9-105.9s105.9,47.7,105.9,105.9C361.1,207.1,313.5,254.7,255.2,254.7z"/>
<path d="M340.1,309.8H171.9C77.3,309.8,0,386.7,0,481.7c0,10.1,8,18.1,18.1,18.1h475.8c10.1,0,18.1-8,18.1-18.1
	C512,387.1,435.1,309.8,340.1,309.8z M26.5,466.6c9.2-69.3,68.9-123.6,141.2-123.6h176.5c72.3,0,132,53.9,141.2,123.6H26.5z"/>
</svg>
