<?xml version="1.0" encoding="utf-8"?>
<!-- Generator: Adobe Illustrator 22.0.1, SVG Export Plug-In . SVG Version: 6.00 Build 0)  -->
<svg version="1.1" id="Capa_1" xmlns="http://www.w3.org/2000/svg" xmlns:xlink="http://www.w3.org/1999/xlink" x="0px" y="0px"
	 viewBox="0 0 512 512" style="enable-background:new 0 0 512 512;" xml:space="preserve">
<path d="M511.7,287.7c-1.3-29.3-6.4-61.9-14-92.5c-7.7-29.3-17.2-56.8-28.7-77.8c-44.6-78.4-93.1-66.3-151.1-51
	c-18.5,4.5-38.3,9.6-58.7,11.5h-6.4c-20.4-1.9-40.2-7-58.7-11.5C136.1,51.7,87.6,39,43,118c-11.5,21-21.7,48.5-28.7,77.8
	c-7.7,30.6-12.8,63.1-14,92.5C-1,320.8,2.2,344.4,9.2,361c7,15.3,17.2,24.9,30.6,28.7c12.1,3.2,26.1,1.9,40.8-4.5
	c24.9-10.2,53.6-31.9,81.6-58c19.8-19.1,56.8-28.7,93.7-28.7s74,9.6,93.7,28.7c28.1,26.1,56.8,47.8,81.6,58
	c14.7,5.7,28.7,7.7,40.8,4.5c12.8-3.8,23.6-12.8,30.6-29.3C509.8,344.4,513,320.8,511.7,287.7z M478.9,350.2
	c-3.8,8.8-8.8,13.9-15.2,15.8c-6.9,1.9-15.8,0.6-25.9-3.2c-22.1-8.8-48-28.4-73.2-52.4c-24-24-66.3-36-108.6-36s-84.6,12-109.2,34.7
	c-25.9,24-51.8,44.2-73.2,52.4c-10.1,3.8-18.9,5.7-25.9,3.2c-6.3-1.9-11.4-6.9-15.2-15.8c-5.1-12-7.6-31.6-6.3-60.6
	c1.3-27.1,5.7-58.1,13.3-87.1c6.9-27.1,15.8-52.4,26.5-71.3c34.7-62.5,75.1-52.4,123.1-39.8c19.6,5.1,39.8,10.1,61.9,12
	c0.6,0,0.6,0,1.3,0h6.9c0.6,0,0.6,0,1.3,0c22.7-1.9,42.9-6.9,62.5-12c48-12,88.4-22.7,123.1,39.8c10.7,18.9,19.6,43.6,26.5,71.3
	c6.9,29,12,59.3,13.3,87.1C487.1,317.3,484.5,336.9,478.9,350.2z"/>
<path d="M197.3,163.3c-6.4-5.7-14-10.2-23-10.8c-0.6-8.3-4.5-16.6-10.2-22.3l-0.6-0.6c-7-7-15.9-10.8-26.1-10.8
	c-10.2,0-19.8,4.5-26.1,10.8c-5.7,5.7-10.2,14-10.8,23c-8.9,0.6-16.6,4.5-23,10.2l-0.6,0.6c-7,7-10.8,15.9-10.8,26.1
	c0,10.2,4.5,19.8,10.8,26.1s14,10.2,23.6,10.8c0.6,8.9,4.5,17.2,10.8,23c7,7,15.9,10.8,26.1,10.8s19.8-4.5,26.1-10.8
	c5.7-6.4,10.2-14,10.8-23c8.9-0.6,17.2-4.5,23-10.8c7-7,10.8-15.9,10.8-26.1C208.2,179.3,203.7,169.7,197.3,163.3z M181.4,199
	c-2.6,2.6-5.7,3.8-9.6,3.8h-8.9c-6.4,0-12.1,5.1-12.1,12.1v8.3c0,3.8-1.3,7-3.8,9.6c-2.6,2.6-5.7,3.8-9.6,3.8s-7-1.3-9.6-3.8
	c-2.6-2.6-3.8-5.7-3.8-9.6v-8.9c0-6.4-5.1-12.1-12.1-12.1H103c-3.8,0-7-1.3-9.6-3.8c-1.9-1.9-3.8-5.1-3.8-8.9c0-3.8,1.3-7,3.8-9.6
	c0,0,0,0,0.6-0.6c2.6-1.9,5.7-3.2,8.9-3.2h8.9c6.4,0,12.1-5.1,12.1-12.1v-9c0-3.8,1.3-7,3.8-9.6s5.7-3.8,9.6-3.8s7,1.3,9.6,3.8
	c0,0,0,0,0.6,0.6c1.9,2.6,3.2,5.7,3.2,8.9v8.9c0,6.4,5.1,12.1,12.1,12.1h8.9c3.8,0,7,1.3,9.6,3.8c2.6,2.6,3.8,5.7,3.8,9.6
	C185.2,193.3,183.9,196.5,181.4,199z"/>
<circle cx="367" cy="144.2" r="22.3"/>
<circle cx="367" cy="234.7" r="22.3"/>
<circle cx="321.7" cy="189.5" r="22.3"/>
<circle cx="412.2" cy="189.5" r="22.3"/>
</svg>
