<?xml version="1.0" encoding="utf-8"?>
<!-- Generator: Adobe Illustrator 22.0.1, SVG Export Plug-In . SVG Version: 6.00 Build 0)  -->
<svg version="1.1" id="Capa_1" xmlns="http://www.w3.org/2000/svg" xmlns:xlink="http://www.w3.org/1999/xlink" x="0px" y="0px"
	 viewBox="0 0 512 512" style="enable-background:new 0 0 512 512;" xml:space="preserve">
<path d="M512,256c0-68.4-26.6-132.7-74.9-181.1C388.7,26.6,324.4,0,256,0S123.3,26.6,74.9,74.9C26.5,123.2,0,187.6,0,256
	c0,0.2,0,0.3,0,0.5c0,0.2,0,0.3,0,0.5c0,141.4,114.6,256,256,256s256-114.6,256-256c0-0.2,0-0.3,0-0.5C512,256.4,512,256.2,512,256z
	 M26.3,265.2l41.2-49.5l93.3,31.1l23.7,94.8l-46.1,61.5l-67.3-10.6C44.6,356.6,28.2,312.7,26.3,265.2z M246.2,71.7V165l-79.3,63.4
	L72.6,197l-13.8-58.9c25.9-43.2,65.6-77.2,113-96L246.2,71.7z M265.8,71.6L339.9,42c47.5,18.7,87.4,52.8,113.3,96.2L439.4,197
	l-94.4,31.5L265.8,165V71.6z M312,353.5l46.2,61l-35,61.4c-21.3,6.5-43.8,10-67.2,10c-21.1,0-41.5-2.9-61-8.2l-40.5-63.5l45.5-60.7
	H312z M374,403l-46.5-61.5l23.7-94.8l93.3-31.1l41.2,49.5c-1.9,47.5-18.3,91.4-44.8,127.3L374,403z"/>
</svg>
