<?xml version="1.0" encoding="utf-8"?>
<!-- Generator: Adobe Illustrator 22.0.1, SVG Export Plug-In . SVG Version: 6.00 Build 0)  -->
<svg version="1.1" id="Capa_1" xmlns="http://www.w3.org/2000/svg" xmlns:xlink="http://www.w3.org/1999/xlink" x="0px" y="0px"
	 viewBox="0 0 512 512" style="enable-background:new 0 0 512 512;" xml:space="preserve">
<path d="M462.9,180.7V78.1c0-5.3-2.9-10.1-7.7-12.6c-4.7-2.4-10.3-2.1-14.8,0.9C338.4,137,234.2,146,194.6,146H81.4
	C36.5,146.2,0,182.6,0,227.4v30.2C0,302.4,36.5,339,81.4,339h54.4l59,143.1c2.2,5.4,7.6,8.8,13.1,8.8c1.9,0,3.6-0.3,5.4-1
	c7.3-3,10.7-11.2,7.8-18.6L166.5,339h28c138.1,0,240.1,73.1,242.7,76.5c2.8,3.7,7,5.8,11.3,5.8c1.6,0,3-0.2,4.4-0.7
	c5.8-2,9.8-7.3,9.8-13.5V304.7C491,298.1,512,273,512,242.8C512.2,212.5,491.1,187.2,462.9,180.7z M28.5,257.6v-30.2
	c0-29.1,23.7-52.9,52.9-52.9h49.7v135.9H81.4C52.1,310.6,28.5,286.9,28.5,257.6z M434.4,372.8c-31.6-26-139.3-62.2-239.9-62.2h-35.1
	v-136h35.1c40.7,0,144.6-8.3,239.9-69.7V372.8z M462.9,274.7v-64c12.3,5.4,20.8,17.8,20.8,32.1C483.8,256.9,475.2,269.2,462.9,274.7
	z"/>
</svg>
