<?xml version="1.0" encoding="utf-8"?>
<!-- Generator: Adobe Illustrator 22.0.1, SVG Export Plug-In . SVG Version: 6.00 Build 0)  -->
<svg version="1.1" id="圖層_1" xmlns="http://www.w3.org/2000/svg" xmlns:xlink="http://www.w3.org/1999/xlink" x="0px" y="0px"
	 viewBox="0 0 512 512" style="enable-background:new 0 0 512 512;" xml:space="preserve">
<g>
	<g>
		<path d="M487.6,189.9v-66.5c0-42.7-33.5-76.2-76.2-76.2H76.2C33.5,47.2,0,80.8,0,123.4v265.1c0,42.7,33.5,76.2,76.2,76.2h335.2
			c42.7,0,76.2-33.5,76.2-76.2v-63.5c14.4-9.5,24.4-25.7,24.4-43.2v-48.8C512,215.6,502,199.4,487.6,189.9L487.6,189.9z
			 M481.5,281.9c0,12.2-9.1,21.3-21.3,21.3H304.8c-12.2,0-21.3-9.1-21.3-21.3v-48.8c0-12.2,9.1-21.3,21.3-21.3h155.4
			c12.2,0,21.3,9.1,21.3,21.3V281.9z M411.4,434.3H76.2c-24.4,0-45.7-21.3-45.7-45.7V123.4c0-24.4,21.3-45.7,45.7-45.7h335.2
			c24.4,0,45.7,21.3,45.7,45.7v57.9H304.8c-27.4,0-51.8,24.4-51.8,51.8v48.8c0,27.4,24.4,51.8,51.8,51.8h152.4v54.9
			C457.1,413,435.8,434.3,411.4,434.3z"/>
	</g>
</g>
<circle cx="329" cy="256" r="18.7"/>
</svg>
