<?xml version="1.0" encoding="utf-8"?>
<!-- Generator: Adobe Illustrator 22.0.1, SVG Export Plug-In . SVG Version: 6.00 Build 0)  -->
<svg version="1.1" id="Capa_1" xmlns="http://www.w3.org/2000/svg" xmlns:xlink="http://www.w3.org/1999/xlink" x="0px" y="0px"
	 viewBox="0 0 512 512" style="enable-background:new 0 0 512 512;" xml:space="preserve">
<path d="M460.3,340.7l35-35c22.2-22.2,22.2-58.3,0-80.4c-6.8-6.8-15-11.6-23.7-14.2c7.1-9.7,11-21.4,11-33.6
	c0-15.2-5.9-29.5-16.7-40.2c-10.7-10.7-25-16.7-40.2-16.7c-0.6,0-1.3,0-1.9,0c0.5-15.2-5-30.5-16.6-42.1s-26.9-17.1-42.1-16.6
	c0-0.6,0-1.3,0-1.9c0-15.2-5.9-29.5-16.7-40.2c-22.2-22.2-58.3-22.2-80.4,0l-12,12l-12.1-12.1C233.2,8.9,218.9,3,203.7,3
	s-29.5,5.9-40.2,16.7c-11.6,11.6-17.1,26.9-16.6,42.1c-0.6,0-1.3,0-1.9,0c-15.2,0-29.5,5.9-40.2,16.7c-11.6,11.5-17.2,26.8-16.7,42
	c-0.6,0-1.3,0-1.9,0c-15.2,0-29.5,5.9-40.2,16.7c-10.7,10.7-16.7,25-16.7,40.2c0,12.3,3.9,23.9,11,33.6c-8.9,2.7-17,7.5-23.7,14.2
	c-22.1,22.1-22.2,58.1-0.1,80.3c0.1,0.1,0.1,0.1,0.2,0.2l35.1,35.1c0,0.1,0.1,0.1,0.1,0.2c2.1,2.1,4.4,4,6.7,5.8L48.2,357
	c-10.1,10.1-15.2,23.8-14.5,38.7C34.5,410,40.6,423.6,51,434l59.3,59.3c11,11,25.5,16.5,39.9,16.5s28.9-5.5,39.9-16.5l27.6-27.6
	c12.6,2.7,25.4,4.1,38.2,4.1s25.6-1.4,38.2-4.1l27.6,27.6c11,11,25.5,16.5,39.9,16.5c14.5,0,28.9-5.5,39.9-16.5L461,434
	c22-22,24.5-55.3,5.6-74.3L454,347.1l6.2-6.2C460.2,340.8,460.3,340.8,460.3,340.7z M184.1,32.3c5.3-5.3,12.3-8.1,19.7-8.1
	s14.4,2.9,19.7,8.1l49.7,49.9c10.8,10.8,10.8,28.4,0,39.2c-5.3,5.3-12.3,8.1-19.7,8.1s-14.4-2.9-19.7-8.1L184,71.5l-0.1-0.1
	C173.3,60.7,173.3,43.1,184.1,32.3z M122.8,93.7c5.3-5.3,12.3-8.1,19.7-8.1s14.4,2.9,19.7,8.1c0,0,0,0,0.1,0l49.7,49.7l0.1,0.1
	l12.4,12.4c5.3,5.3,8.1,12.3,8.1,19.7s-2.9,14.4-8.1,19.7s-12.3,8.1-19.7,8.1s-14.4-2.9-19.7-8.1c-0.1-0.1-0.1-0.1-0.2-0.2
	l-12.3-12.3c0,0,0,0,0-0.1l-49.9-49.9c0,0,0,0-0.1-0.1C111.8,122,111.9,104.4,122.8,93.7z M60.4,156c5.3-5.3,12.3-8.1,19.7-8.1
	s14.4,2.9,19.7,8.1l50,50c10.8,10.8,10.7,28.4,0,39.2c-5.3,5.3-12.3,8.1-19.7,8.1s-14.4-2.9-19.7-8.1c-0.1-0.1-0.1-0.1-0.2-0.2
	l-49.6-49.5c-0.1-0.1-0.1-0.1-0.2-0.2c-5.3-5.3-8.1-12.3-8.1-19.7C52.3,168.2,55.2,161.3,60.4,156z M31.4,286.9
	c-0.1-0.1-0.1-0.1-0.2-0.2c-10.8-10.8-10.8-28.4,0-39.2c5.3-5.3,12.3-8.1,19.7-8.1s14.4,2.9,19.7,8.1l37.4,37.4
	c10.8,10.8,10.8,28.4,0,39.2c-5.3,5.3-12.3,8.1-19.7,8.1c-1.3,0-2.7-0.1-4-0.3c-0.1,0-0.2,0-0.3,0c-5.8-0.9-11-3.5-15.1-7.7
	l-0.1-0.1L31.4,286.9z M442.9,415.4L382.4,476c-10.2,10.2-26.9,10.2-37.2,0l-16.7-16.7c21.6-9.2,41.5-22.6,58.3-39.4l48.8-48.8
	l12.9,12.9C455.5,390.8,452.8,405.5,442.9,415.4z M442.1,320.4c-0.1,0.1-0.1,0.1-0.2,0.2l-77.1,77.1c-38.7,38.7-95.6,54-148.6,39.8
	c-0.1,0-0.3-0.1-0.4-0.1c-0.3-0.1-0.6-0.1-0.9-0.2c-0.2,0-0.5-0.1-0.7-0.1c-0.3,0-0.5-0.1-0.8-0.1s-0.5,0-0.8,0c-0.2,0-0.4,0-0.7,0
	s-0.6,0-0.9,0c-0.2,0-0.4,0-0.6,0.1c-0.3,0-0.6,0.1-0.9,0.1c-0.2,0-0.4,0.1-0.7,0.1c-0.3,0.1-0.5,0.1-0.8,0.2
	c-0.2,0.1-0.5,0.1-0.7,0.2s-0.4,0.2-0.7,0.2c-0.3,0.1-0.5,0.2-0.8,0.3c-0.2,0.1-0.4,0.2-0.6,0.3c-0.3,0.1-0.5,0.3-0.8,0.4
	c-0.2,0.1-0.4,0.2-0.6,0.4c-0.2,0.1-0.5,0.3-0.7,0.4c-0.2,0.2-0.4,0.3-0.7,0.5c-0.2,0.1-0.4,0.3-0.5,0.4c-0.3,0.2-0.5,0.4-0.7,0.7
	c-0.1,0.1-0.2,0.2-0.3,0.3L166.7,476c-10.2,10.2-26.9,10.2-37.2,0L69,415.5c-5.1-5.1-8.2-11.7-8.5-18.5c-0.3-6.2,1.7-11.8,5.6-15.7
	l21.6-21.6c0.3,0,0.7,0,1,0c15.5,0,30.1-6,41-17c16.8-16.8,21.1-41.3,13-62.1c10.9-2.3,20.9-7.7,28.9-15.7
	c9.2-9.2,14.7-20.8,16.4-32.8c4.7,1.2,9.5,1.8,14.5,1.8c15.5,0,30.1-6,41-17c11-11,17-25.5,17-41c0-4.9-0.6-9.8-1.8-14.5
	c12.4-1.8,23.8-7.4,32.7-16.4c22.6-22.6,22.6-59.4,0-82L278,49.6l12.4-12.3c10.4-10.4,27.4-10.4,37.8,0c5,5,7.8,11.7,7.8,18.9
	c0,7.1-2.8,13.8-7.8,18.9c-3.1,3.1-4.6,7.1-4.6,11.1s1.5,8,4.6,11.1c6.1,6.1,16,6.1,22.1,0c10.4-10.4,27.3-10.4,37.8,0
	c10.4,10.4,10.4,27.4,0,37.8c-3.1,3.1-4.6,7.1-4.6,11.1s1.5,8,4.6,11.1c6.1,6.1,16,6.1,22.1,0c5-5,11.8-7.8,18.9-7.8
	s13.8,2.8,18.9,7.8c5,5,7.8,11.8,7.8,18.9c0,7-2.7,13.7-7.6,18.7c-0.1,0.1-0.1,0.1-0.2,0.2l-22.5,22.5c-5.6,5.6-6.1,14.5-1.3,20.7
	l0.8,1c4.9,6.2,13.6,7.9,20.4,3.8c10.5-6.3,23.9-4.6,32.5,4.1c10.4,10.4,10.4,27.4,0,37.8L442.1,320.4z"/>
</svg>
