<?xml version="1.0" encoding="utf-8"?>
<!-- Generator: Adobe Illustrator 22.0.1, SVG Export Plug-In . SVG Version: 6.00 Build 0)  -->
<svg version="1.1" id="Capa_1" xmlns="http://www.w3.org/2000/svg" xmlns:xlink="http://www.w3.org/1999/xlink" x="0px" y="0px"
	 viewBox="0 0 512 512" style="enable-background:new 0 0 512 512;" xml:space="preserve">
<style type="text/css">
	.st0{fill:none;}
	.st1{fill:none;stroke:#000000;stroke-width:24;stroke-miterlimit:10;}
</style>
<path d="M395.9,0h-57.2v24.9h60c36.9,0,67,30,67,67v328.2h0.1c0,36.9-30,67-67,67H244.8H240H108.6c-37,0-67-30.2-67-67V91.9
	c0-37,30.2-67,67-67h60.1V0h-57.2C59,0,16.4,42.7,16.4,95.1v321.9c0,52.5,42.7,95.1,95.1,95.1h128.9h4.7h150.8
	c52.4,0,95.1-42.6,95.1-95.1V95.1C490.9,42.7,448.4,0,395.9,0z"/>
<path class="st0" d="M-528.9,364.3H-399v-74.2h-45.1C-487.6,290.1-523.3,322.7-528.9,364.3z"/>
<g>
	<circle class="st1" cx="253.6" cy="190.4" r="60.4"/>
	<path class="st1" d="M285,293.9h-62.8c-49.7,0-90.8,39.2-93.9,88.1h250.6C375.9,333.1,334.8,293.9,285,293.9z"/>
</g>
</svg>
