<?xml version="1.0" encoding="utf-8"?>
<!-- Generator: Adobe Illustrator 22.0.1, SVG Export Plug-In . SVG Version: 6.00 Build 0)  -->
<svg version="1.1" id="Capa_1" xmlns="http://www.w3.org/2000/svg" xmlns:xlink="http://www.w3.org/1999/xlink" x="0px" y="0px"
	 viewBox="0 0 512 512" style="enable-background:new 0 0 512 512;" xml:space="preserve">
<path d="M437.1,74.9C388.7,26.6,324.4,0,256,0S123.3,26.6,74.9,74.9S0,187.6,0,256s26.6,132.7,74.9,181.1S187.6,512,256,512
	s132.7-26.6,181.1-74.9S512,324.4,512,256S485.4,123.3,437.1,74.9z M256,485.9C129.3,485.9,26.1,382.7,26.1,256S129.3,26.1,256,26.1
	S485.9,129.3,485.9,256S382.7,485.9,256,485.9z"/>
<path d="M234.1,408.4l-21.8-14.1l71.8-108.7c-9.4,3.2-18.6,4.8-27.7,4.8c-21.2,0-39-7.6-53.4-22.9s-21.6-34.3-21.6-57.1
	s8-42,24-57.5s35.7-23.3,59-23.3s42.5,8,57.7,23.9s22.7,35,22.7,57.1c0,12.3-2.5,24.7-7.6,37.2c-5.1,12.5-12.5,26-22.4,40.5
	L234.1,408.4z M207.1,211.3c0,15.5,5.4,28.7,16.3,39.6c10.8,10.9,24,16.3,39.6,16.3c15.5,0,28.7-5.5,39.6-16.5
	c10.8-11,16.3-24.1,16.3-39.4s-5.4-28.4-16.3-39.4s-24-16.5-39.6-16.5c-15.5,0-28.7,5.4-39.6,16.3
	C212.6,182.6,207.1,195.8,207.1,211.3z"/>
</svg>
