<?xml version="1.0" encoding="utf-8"?>
<!-- Generator: Adobe Illustrator 22.0.1, SVG Export Plug-In . SVG Version: 6.00 Build 0)  -->
<svg version="1.1" id="Capa_1" xmlns="http://www.w3.org/2000/svg" xmlns:xlink="http://www.w3.org/1999/xlink" x="0px" y="0px"
	 viewBox="0 0 512 512" style="enable-background:new 0 0 512 512;" xml:space="preserve">
<style type="text/css">
	.st0{fill:none;}
	.st1{fill:none;stroke:#000000;stroke-width:25;stroke-linecap:round;stroke-miterlimit:12;}
	.st2{fill:none;stroke:#000000;stroke-width:25;stroke-miterlimit:10;}
</style>
<path class="st0" d="M-528.9,364.3H-399v-74.2h-45.1C-487.6,290.1-523.3,322.7-528.9,364.3z"/>
<path class="st1" d="M424.6,499.1H87.4c-24.7,0-44.9-20.2-44.9-44.9V56.1c0-24.7,20.2-44.9,44.9-44.9h337.2
	c24.7,0,44.9,20.2,44.9,44.9v398.1C469.5,478.9,449.3,499.1,424.6,499.1z"/>
<path class="st2" d="M359.3,167.8c-12.9-12.9-30-20-48.2-20s-35.4,7.1-48.3,20l-6.7,6.7l-6.8-6.8c-12.9-12.9-30.1-20.1-48.3-20.1
	c-18.2,0-35.3,7.1-48.2,20c-12.9,12.9-20,30-20,48.3c0,18.2,7.2,35.3,20.1,48.2l98.1,98.1c1.4,1.4,3.2,2.1,5,2.1c1.8,0,3.6-0.7,5-2
	l98.3-97.9c12.9-12.9,20-30,20-48.3C379.2,197.8,372.2,180.7,359.3,167.8z"/>
</svg>
