<?xml version="1.0" encoding="utf-8"?>
<!-- Generator: Adobe Illustrator 22.0.1, SVG Export Plug-In . SVG Version: 6.00 Build 0)  -->
<svg version="1.1" id="Capa_1" xmlns="http://www.w3.org/2000/svg" xmlns:xlink="http://www.w3.org/1999/xlink" x="0px" y="0px"
	 viewBox="0 0 512 512" style="enable-background:new 0 0 512 512;" xml:space="preserve">
<path d="M255.2,277.8c-71.1,0-128.9-57.9-128.9-129c0-70.9,57.8-128.6,128.9-128.6c71.1,0,129,57.7,129,128.6
	C384.2,219.9,326.3,277.8,255.2,277.8z M255.2,45.2c-57.3,0-103.9,46.5-103.9,103.6c0,57.3,46.6,104,103.9,104
	c57.3,0,104-46.7,104-104C359.2,91.7,312.5,45.2,255.2,45.2z"/>
<path d="M481.8,507.5H30.2c-16.4,0-29.7-13.3-29.7-29.7c0-96.9,78.8-175.7,175.7-175.7h159.6c96.9,0,175.7,78.8,175.7,175.7
	C511.5,494.2,498.2,507.5,481.8,507.5z M176.2,327.1c-83.1,0-150.7,67.6-150.7,150.7c0,2.7,2,4.7,4.7,4.7h451.6c2.7,0,4.7-2,4.7-4.7
	c0-83.1-67.6-150.7-150.7-150.7H176.2z"/>
</svg>
