<?xml version="1.0" encoding="utf-8"?>
<!-- Generator: Adobe Illustrator 22.0.1, SVG Export Plug-In . SVG Version: 6.00 Build 0)  -->
<svg version="1.1" id="Capa_1" xmlns="http://www.w3.org/2000/svg" xmlns:xlink="http://www.w3.org/1999/xlink" x="0px" y="0px"
	 viewBox="0 0 489.5 489.5" style="enable-background:new 0 0 489.5 489.5;" xml:space="preserve">
<path d="M416.8,451.4V38c0-20.9-19.8-38-44.4-38H117C92.6,0,72.7,17,72.7,38v413.5c0,20.9,19.8,38,44.4,38h255.4
	C396.9,489.4,416.8,472.4,416.8,451.4z M101.3,88.1h286.8v278.2H101.3C101.3,366.3,101.3,88.1,101.3,88.1z M117,24.5h255.4
	c8.6,0,15.8,6,15.8,13.5v25.6H101.3V38C101.3,30.5,108.4,24.5,117,24.5z M101.3,451.4v-60.7h286.8v60.7c0,7.4-7,13.5-15.8,13.5H117
	C108.4,464.9,101.3,458.9,101.3,451.4z"/>
<path d="M273.8,416.6h-58c-7.9,0-14.4,5.5-14.4,12.3s6.4,12.3,14.4,12.3h58c7.9,0,14.4-5.5,14.4-12.3
	C288.1,422.1,281.7,416.6,273.8,416.6z"/>
</svg>
