<?xml version="1.0" encoding="utf-8"?>
<!-- Generator: Adobe Illustrator 22.0.1, SVG Export Plug-In . SVG Version: 6.00 Build 0)  -->
<svg version="1.1" id="Capa_1" xmlns="http://www.w3.org/2000/svg" xmlns:xlink="http://www.w3.org/1999/xlink" x="0px" y="0px"
	 viewBox="0 0 512 512" style="enable-background:new 0 0 512 512;" xml:space="preserve">
<path d="M117.3,101.5c75.6-68.4,188.7-69.4,265.4-7L322,96.8c-7.8,0.3-13.9,6.8-13.6,14.6c0.3,7.6,6.6,13.6,14.1,13.6
	c0.2,0,0.3,0,0.5,0l93.3-3.5c7.6-0.3,13.6-6.5,13.6-14.1v-1c0-0.2,0-0.3,0-0.5v-0.1l0,0l-3.5-92.2c-0.4-7.8-7-13.9-14.7-13.6
	c-7.8,0.3-13.9,6.8-13.6,14.6l2.2,57.8c-38-31.1-84.7-49-134.7-51.5C203.7,17.8,144.2,39,98.3,80.6c-63.1,57.2-89.9,144.2-69.8,227
	c1.6,6.5,7.3,10.8,13.7,10.8c1.2,0,2.2-0.1,3.3-0.4c7.5-1.9,12.2-9.5,10.4-17C38.3,228.1,61.7,151.7,117.3,101.5z"/>
<path d="M483.5,204.4c-1.9-7.5-9.5-12.2-17-10.4c-7.5,1.9-12.2,9.5-10.4,17c17.7,72.8-5.9,149.2-61.4,199.4
	c-39,35.2-87.9,52.6-136.6,52.6c-46.5,0-92.9-15.8-130.4-46.9l61.5-5.5c7.7-0.7,13.5-7.5,12.8-15.4s-7.5-13.5-15.4-12.8l-92.9,8.4
	c-7.7,0.7-13.5,7.5-12.8,15.4l8.4,92.9c0.6,7.3,6.8,12.9,14,12.9c0.4,0,0.8,0,1.3-0.1c7.7-0.7,13.5-7.5,12.8-15.4l-5-56.6
	c38,30.7,84.5,48.6,134.1,51.1c4,0.2,7.9,0.3,11.8,0.3c57.6,0,112.4-21.1,155.5-60C476.8,374.2,503.6,287.3,483.5,204.4z"/>
<path d="M273.1,244H239c-14.2,0-25.7-11.5-25.7-25.7s11.5-25.7,25.7-25.7h60.2c6.4,0,11.7-5.3,11.7-11.7s-5.3-11.7-11.7-11.7h-31.4
	v-23.9c0-6.4-5.3-11.7-11.7-11.7c-6.4,0-11.7,5.3-11.7,11.7v23.9H239c-27.1,0-49.1,22.1-49.1,49.1s22.1,49.1,49.1,49.1h34.1
	c14.2,0,25.7,11.5,25.7,25.7s-11.5,25.7-25.7,25.7h-61.2c-6.4,0-11.7,5.3-11.7,11.7c0,6.4,5.3,11.7,11.7,11.7h32.4v24.4
	c0,6.4,5.3,11.7,11.7,11.7c6.4,0,11.7-5.3,11.7-11.7v-24.4h5.7c0.1,0,0.2,0,0.3,0c26.8-0.4,48.4-22.3,48.4-49.1
	C322.1,266,300.1,244,273.1,244z"/>
</svg>
