<?xml version="1.0" encoding="utf-8"?>
<!-- Generator: Adobe Illustrator 22.0.1, SVG Export Plug-In . SVG Version: 6.00 Build 0)  -->
<svg version="1.1" id="Capa_1" xmlns="http://www.w3.org/2000/svg" xmlns:xlink="http://www.w3.org/1999/xlink" x="0px" y="0px"
	 viewBox="0 0 490.7 490.7" style="enable-background:new 0 0 490.7 490.7;" xml:space="preserve">
<path d="M441.5,189.4l-112.9-8.1c-2.4-0.2-4.4-1.6-5.3-3.9l-43-104.7c-5.9-14.4-19.3-23.4-35-23.4c-15.7,0-28.9,9-35,23.5
	l-43.1,104.8c-0.9,2.2-2.9,3.7-5.3,3.9l-112.7,8.1c-15.3,0.8-28.3,10.8-33.3,25.6c-5.1,14.9-0.8,30.5,11.2,40.8l87.2,72
	c1.8,1.5,2.6,4,2.1,6.2L90,443c-3.1,11.3-0.9,23,5.9,32.2c7.1,9.2,18.1,14.8,29.7,14.8c7.2,0,14.1-2.2,19.9-6l95.3-59.3
	c2-1.2,4.5-1.2,6.5,0l96.3,59.1c6,4.1,13,6.2,20.1,6.2c10.8,0,21.6-5.2,28.6-14c7.3-9.1,9.9-20.8,7.3-32.6l-26.7-109.1
	c-0.6-2.4,0.3-4.8,2.1-6.3l88.5-72.2c11.9-10.2,16.1-25.8,11.1-40.7C469.7,200.4,456.6,190.3,441.5,189.4z M448.8,238l-88.3,72.1
	c-8.7,7.1-12.6,18.8-9.9,29.7l26.7,108.9c1.4,6.4-1.1,10.8-2.8,12.9c-2.6,3.3-6.6,5.4-10.6,5.4c-2.5,0-4.9-0.8-7.5-2.5L259.7,405
	c-4.6-2.8-9.9-4.3-15.4-4.3c-5.5,0-10.8,1.5-15.5,4.4l-95.7,59.5c-6.1,4.1-14.3,2.3-18.7-3.4c-1.8-2.4-3.7-6.4-2-12.4l26.7-109.2
	c2.6-10.8-1.2-22.4-9.8-29.5l-87-71.9c-6.9-5.9-5-13.6-4.2-15.7c0.8-2.2,3.9-9.4,12.9-9.9l112.9-8.1c11.1-0.8,20.7-7.7,25-18.1
	l43.1-104.8c3.5-8.5,11.3-9.1,13.6-9.1s10.1,0.7,13.6,9.1l43.1,104.8c4.2,10.4,13.9,17.3,25,18.1l113,8.2c8.9,0.5,12,7.7,12.7,9.9
	C453.5,224.6,455.4,232.2,448.8,238z"/>
<path d="M478.4,87.4H353c-6.8,0-12.3-4.9-12.3-11s5.5-11,12.3-11h125.3c6.8,0,12.3,4.9,12.3,11S485.2,87.4,478.4,87.4z"/>
<path d="M415.7,151.4c-6.1,0-11-5.5-11-12.3V13.7c0-6.8,4.9-12.3,11-12.3s11,5.5,11,12.3V139C426.7,145.8,421.8,151.4,415.7,151.4z"
	/>
</svg>
